<?xml version="1.0" encoding="UTF-8"?>
<svg width="256px" height="256px" viewBox="0 0 256 256" version="1.1" xmlns="http://www.w3.org/2000/svg" xmlns:xlink="http://www.w3.org/1999/xlink">
    <!-- Generator: Sketch 47.1 (45422) - http://www.bohemiancoding.com/sketch -->
    <title>Bytecoin</title>
    <desc>Created with Sketch.</desc>
    <defs></defs>
    <g id="Classic" stroke="none" stroke-width="1" fill="none" fill-rule="evenodd">
        <g transform="translate(-3388.000000, -1805.000000)" id="Bytecoin">
            <g transform="translate(3388.000000, 1805.000000)">
                <circle id="Oval-7" fill="#DD6089" cx="128" cy="128" r="128"></circle>
                <path d="M85.1310231,59.4137712 C101.676194,59.1956072 125.339713,59.3932682 156.121581,60.0067542 C202.294384,60.9269831 202.260968,117.7145 166.340597,123.569308 C207.250673,127.532955 206.614306,189.563338 154.745276,192.223653 L85.1310231,192.520145 L85.1310231,59.4137712 Z M112.301041,80.9749185 L112.301041,115.31253 C122.781713,115.462695 134.763988,115.166204 148.247868,114.423056 C168.473688,113.308334 168.820422,81.8939184 146.172579,81.27141 C136.681602,80.8321756 125.391089,80.7333451 112.301041,80.9749185 Z M112.406257,136.574614 C114.896953,136.519392 126.597887,136.61908 147.509058,136.873678 C174.175365,135.25746 172.209229,170.295041 146.916119,170.777474 C129.434822,171.194554 117.896463,171.293384 112.301041,171.073966 L112.301041,154.362977 L85.1310231,154.362977 L85.1310231,136.573487 L112.406257,136.573487 Z M50.7205613,115.244926 L85.1307583,115.244926 L85.1307583,136.603144 L50.7205613,136.603144 L50.7205613,115.244926 Z" id="Combined-Shape" fill="#FFFFFF"></path>
            </g>
        </g>
    </g>
</svg>