<?xml version="1.0" encoding="UTF-8"?>
<svg width="256px" height="256px" viewBox="0 0 256 256" version="1.1" xmlns="http://www.w3.org/2000/svg" xmlns:xlink="http://www.w3.org/1999/xlink">
    <!-- Generator: Sketch 47.1 (45422) - http://www.bohemiancoding.com/sketch -->
    <title>Bytom</title>
    <desc>Created with Sketch.</desc>
    <defs></defs>
    <g id="Classic" stroke="none" stroke-width="1" fill="none" fill-rule="evenodd">
        <g transform="translate(-2176.000000, -3963.000000)" id="Bytom">
            <g transform="translate(2176.000000, 3963.000000)">
                <path d="M146.82902,158.24705 L255.89761,99.1808589 L206.071781,49.7964014 L216.490704,88.5853659 L146.82902,158.24705 Z M84.0828162,72.6339352 L-3.07077169e-05,156.716782 L49.8259013,206.07176 L39.4364571,167.282898 L84.0828162,72.6339352 Z M97.6505091,146.829 L156.716803,255.897692 L206.071781,206.07176 L167.282919,216.461204 L97.6505091,146.829 Z M88.6147634,39.4363343 L158.24707,109.068641 L99.180777,5.11795282e-05 L49.7964219,49.8258808 L88.6147634,39.4363343 Z" id="Fill-1" fill="#040000"></path>
                <path d="M255.89762,99.1808384 L146.828928,158.247132 L171.814774,183.234206 L255.89762,99.1808384 Z M84.0828264,72.6339148 L39.4364673,167.282878 L109.068672,97.6505705 L84.0828264,72.6339148 Z M156.716813,255.897672 L97.6505193,146.828979 L72.6634453,171.814722 L156.716813,255.897672 Z M183.234257,84.0533982 L99.1807872,3.07077169e-05 L158.247081,109.068723 L183.234257,84.0533982 Z" id="Fill-4" fill="#323333"></path>
                <path d="M234.943422,20.9541681 L156.716844,4.09436225e-05 L179.643941,42.7336163 L234.943422,20.9541681 Z M20.9836168,234.914075 L99.1808179,255.897682 L76.2548459,213.135855 L20.9836168,234.914075 Z M255.897651,156.716772 L213.165304,179.643972 L234.943422,234.943452 L255.897651,156.716772 Z M20.9836168,20.9541681 L1.02359056e-05,99.1808486 L42.7335856,76.2254996 L20.9836168,20.9541681 Z" id="Fill-7" fill="#555555"></path>
                <path d="M255.8976,99.1808384 L234.94337,20.9541579 L179.643993,42.7336061 L206.07177,49.796381 L255.8976,99.1808384 Z M49.8258911,206.07174 L-4.09436226e-05,156.716864 L20.9835656,234.914065 L76.2548971,213.135845 L49.8258911,206.07174 Z M156.716792,255.897672 L234.94337,234.943442 L213.165355,179.643962 L206.07177,206.07174 L156.716792,255.897672 Z M49.7964117,49.8258604 L99.1808691,3.07077169e-05 L20.9835656,20.9541579 L42.7336368,76.2254893 L49.7964117,49.8258604 Z" id="Fill-10" fill="#323333"></path>
                <path d="M156.716813,0 L146.828928,9.91859256 L179.643911,42.7335754 L156.716813,0 Z M109.068672,245.979048 L76.2549176,213.135814 L99.1807872,255.897641 L109.068672,245.979048 Z M255.89762,156.716833 L245.979028,146.828948 L213.165376,179.643931 L255.89762,156.716833 Z M42.7335549,76.2254586 L-2.04718113e-05,99.1808077 L9.91857209,109.068693 L42.7335549,76.2254586 Z" id="Fill-13" fill="#040000"></path>
            </g>
        </g>
    </g>
</svg>