<?xml version="1.0" encoding="UTF-8"?>
<svg width="257px" height="257px" viewBox="0 0 257 257" version="1.1" xmlns="http://www.w3.org/2000/svg" xmlns:xlink="http://www.w3.org/1999/xlink">
    <!-- Generator: Sketch 47.1 (45422) - http://www.bohemiancoding.com/sketch -->
    <title>Factom</title>
    <desc>Created with Sketch.</desc>
    <defs></defs>
    <g id="Classic" stroke="none" stroke-width="1" fill="none" fill-rule="evenodd">
        <g transform="translate(-4010.000000, -3279.000000)" id="Factom">
            <g transform="translate(4010.000000, 3279.000000)">
                <path d="M178.819596,74.9176644 L177.194808,74.9176644 C177.194808,74.380333 177.73214,73.8302081 177.73214,73.8302081 L178.269471,73.8302081 C178.819596,74.380333 178.819596,74.9176644 178.819596,74.9176644" id="Fill-1" fill="#EFF3C9"></path>
                <path d="M108.8795,51.0742773 C101.695191,55.1371228 99.160255,47.6035644 102.37907,45.6510689 C108.8795,41.5693158 161.830221,1.75327694 117.999757,0.791322568 C183.610815,-6.47381207 116.06381,47.0114318 108.8795,51.0742773 Z" id="Fill-3" fill="#D37D41"></path>
                <path d="M85.5669325,113.954824 C75.8029825,118.291856 66.0529775,121.538872 57.3775072,124.252395 C48.0444211,127.524746 45.4957405,116.04948 55.7527196,113.416213 C66.0096988,110.782947 72.566073,107.993005 81.7788746,104.204819 C131.118685,83.0608312 208.414452,25.361624 173.942713,8.27070625 C233.183374,23.0469948 137.619114,91.7361735 85.5669325,113.954824 Z" id="Fill-5" fill="#D37D41"></path>
                <path d="M155.519834,189.832444 C148.47484,193.669761 144.999796,184.311139 150.644192,181.159532 C199.917244,154.894304 255.314442,111.15339 248.771129,83.5994803 C267.647475,117.67624 217.141493,153.525635 155.519834,189.832444 Z" id="Fill-7" fill="#417BA4"></path>
                <path d="M209.734033,181.146751 C205.389078,184.464874 199.788653,178.680697 207.02051,173.012579 C232.509205,154.043631 257.924764,127.348625 255.277981,111.218324 C263.24028,140.272855 234.133993,162.715007 209.734033,181.146751 Z" id="Fill-9" fill="#D37D41"></path>
                <path d="M169.056772,19.6339846 C163.631004,40.2316858 122.967816,72.2054589 78.5151624,91.1745343 C43.2764618,105.820651 16.1629785,108.531616 9.12521739,98.2225303 C6.38295543,93.5238663 7.27439786,86.8543711 11.7995447,78.2140447 C10.5864765,82.1303307 10.7782258,85.5464127 12.3747926,88.4622905 C18.8752224,97.6736848 43.8265867,95.5102865 75.8144328,81.9644194 C116.478901,64.0828002 153.892514,34.8161535 158.768156,16.3844094 C160.139686,10.4349926 156.842774,5.42928212 148.877421,1.36727796 C165.343865,3.03490469 172.070316,9.12380691 169.056772,19.6339846 Z" id="Fill-15" fill="#417BA4"></path>
                <path d="M8.57507966,126.030681 C1.70419708,121.654679 0.048517751,113.516666 3.60804167,101.616641 C2.05096609,107.570294 4.24397675,112.097526 10.1870737,115.198337 C18.9024373,119.745578 13.056338,128.884752 8.57507966,126.030681 Z" id="Fill-17" fill="#E8B521"></path>
                <path d="M212.447492,43.4889371 C205.397065,70.5934649 152.270221,112.318522 94.2550685,136.710806 C38.9510085,160.559362 16.5200569,154.626196 8.72482122,150.4459 C0.980722264,145.341893 -1.56365859,138.422083 1.09167865,129.686467 C1.95282088,134.994644 5.24207762,138.959587 10.9594489,141.581297 C59.1535161,161.818831 202.792053,72.0716101 204.308202,32.6553139 C204.845533,25.0699866 201.026544,23.4198391 198.345231,20.7342345 C210.217443,26.134889 214.918197,33.7197899 212.447492,43.4889371 Z" id="Fill-19" fill="#D37D41"></path>
                <path d="M6.95027926,166.513492 C6.41294793,164.351373 5.86282299,162.17774 6.41294793,159.465496 C5.86282299,162.17774 6.41294793,164.351373 6.95027926,166.513492" id="Fill-21" fill="#417BA4"></path>
                <path d="M229.784053,61.3718101 C222.534581,90.1352403 166.344541,133.999944 104.541202,160.010491 C45.9887184,185.490231 4.34959529,187.317618 3.81187711,155.507508 C13.8531275,175.669369 53.0404246,170.306911 100.218244,150.250251 C160.395515,124.770511 215.161092,81.4206657 222.747571,53.229961 C224.509054,45.5896085 223.165425,42.3061929 219.952138,38.0348602 C226.22452,42.9991721 233.096711,48.2283143 229.784053,61.3718101 Z" id="Fill-23" fill="#417BA4"></path>
                <path d="M212.433534,124.252395 C192.798592,143.507042 153.327088,167.613755 116.467437,183.334406 C61.7031396,206.10702 34.6162358,203.321082 25.4218523,198.59642 C16.2274688,193.871757 15.0755734,185.495374 13.9881171,183.871866 C24.2882471,197.417605 61.340856,194.294564 111.041542,173.575574 C149.513285,157.537653 191.477478,127.9902 207.007767,114.493435 C212.956351,109.801268 217.392862,118.767496 212.433534,124.252395 Z" id="Fill-25" fill="#E8B521"></path>
                <path d="M75.2668666,220.185101 C69.8034345,221.563814 36.8360226,227.775608 27.5518441,205.550626 C34.1145271,213.407601 52.5612948,215.360393 69.3037681,212.048497 C80.5850978,209.84538 80.7302986,218.806388 75.2668666,220.185101 Z" id="Fill-27" fill="#417BA4"></path>
                <path d="M133.280765,222.883477 C118.513591,230.261831 65.2473066,248.958112 45.4539586,225.595593 C56.8402655,235.35596 90.0730601,231.600517 127.87035,216.384198 C135.521208,213.304139 140.251352,219.400653 133.280765,222.883477 Z" id="Fill-29" fill="#D37D41"></path>
                <path d="M151.718855,232.648744 C118.642273,246.744736 89.148259,254.859569 68.7651318,240.784197 C111.558241,257.981517 243.050924,187.965771 256.117216,142.031653 C253.488997,173.216455 202.146121,210.966146 151.718855,232.648744 Z" id="Fill-31" fill="#417BA4"></path>
                <path d="M93.7038049,251.075358 C146.018992,259.426663 244.021243,194.721726 251.486034,165.438817 C245.271774,207.057981 134.362037,268.978557 93.7038049,251.075358 Z" id="Fill-33" fill="#E8B521"></path>
                <path d="M121.354607,255.949772 C157.017008,257.150058 210.213366,221.766245 220.819754,213.458378 C204.069098,232.612811 146.66124,262.271235 121.354607,255.949772 Z" id="Fill-35" fill="#417BA4"></path>
                <path d="M83.4023188,35.890829 C81.7567986,36.7592943 48.2962887,55.3073016 38.9381509,46.1845621 C36.7378727,43.3727598 40.6397001,37.5258515 42.2644878,35.3637325 C40.1356322,36.9731678 30.5007699,42.8803737 30.8607877,51.9198109 C31.2208054,60.9592481 50.8758621,58.660756 69.8513343,50.526711 C76.3517641,48.3517985 84.9818557,43.7728709 87.7393503,41.8539274 C90.7041384,39.7907282 88.6659174,33.1128307 83.4023188,35.890829 Z" id="Fill-45" fill="#417BA4"></path>
                <path d="M59.7547388,65.5929799 C55.1445445,67.834862 8.40563072,79.8792504 26.9456626,51.301698 C-3.51614948,85.9091941 39.0993392,84.8428361 60.255654,73.9892234 C67.8748964,70.0803997 64.3649331,63.3510978 59.7547388,65.5929799 Z" id="Fill-45" fill="#D37D41"></path>
            </g>
        </g>
    </g>
</svg>