<?xml version="1.0" encoding="UTF-8"?>
<svg width="256px" height="34px" viewBox="0 0 256 34" version="1.1" xmlns="http://www.w3.org/2000/svg" xmlns:xlink="http://www.w3.org/1999/xlink">
    <!-- Generator: Sketch 47.1 (45422) - http://www.bohemiancoding.com/sketch -->
    <title>FunFair</title>
    <desc>Created with Sketch.</desc>
    <defs></defs>
    <g id="Classic" stroke="none" stroke-width="1" fill="none" fill-rule="evenodd">
        <g transform="translate(-4010.000000, -5556.000000)" id="FunFair">
            <g transform="translate(4010.000000, 5556.000000)">
                <path d="M0.12126249,33.4250679 L0.12126249,10.1003582 C0.12126249,5.08235989 2.94455887,0.14001204 8.7083336,0.14001204 L37.1643772,0.14001204 L37.1643772,7.35220593 L10.1654373,7.35220593 C8.20541034,7.35220593 7.8446359,7.93158464 7.8446359,9.58213957 L7.8446359,13.4886801 L37.1643772,13.4886801 L37.1643772,20.5732725 L7.8446359,20.5732725 L7.8446359,33.4250679 L0.12126249,33.4250679 Z M41.7545205,0.0682431075 L49.5823416,0.0682431075 L49.5823416,24.1901215 C49.5823416,24.9450383 50.2223905,25.8763438 51.6245573,25.8763438 L71.0670206,25.8763438 L71.0670206,0.0682431075 L78.2694799,0.0682431075 L78.2694799,33.6189639 L50.6204185,33.6189639 C45.8863881,33.6189639 41.7545205,29.8195893 41.7545205,25.8763438 C41.7545205,23.2475134 41.7545205,14.6448132 41.7545205,0.0682431075 Z M119.381491,33.6189639 L111.55367,33.6189639 L111.55367,9.49708545 C111.55367,8.74216866 110.913621,7.81086317 109.511454,7.81086317 L90.0689906,7.81086317 L90.0689906,33.6189639 L82.8665312,33.6189639 L82.8665312,0.0682431075 L110.515593,0.0682431075 C115.249623,0.0682431075 119.381491,3.86761762 119.381491,7.81086317 C119.381491,10.4396935 119.381491,19.0423938 119.381491,33.6189639 Z" id="Combined-Shape" fill="#E42C84"></path>
                <path d="M125.18469,33.4250679 L132.908064,33.4250679 L132.908064,20.5732725 L162.227805,20.5732725 L162.227805,13.4886801 L132.908064,13.4886801 L132.908064,9.58213957 C132.908064,7.93158464 133.268838,7.35220593 135.228865,7.35220593 L162.227805,7.35220593 L162.227805,0.14001204 L133.771761,0.14001204 C128.007987,0.14001204 125.18469,5.08235989 125.18469,10.1003582 L125.18469,33.4250679 Z" id="Path-35" fill="#009EFF"></path>
                <polygon id="Path-37" fill="#009EFF" points="206.064028 0.216630367 215.110331 0.216630367 215.110331 33.8811358 206.064028 33.8811358"></polygon>
                <path d="M165.346919,0.129176266 C180.596867,0.129176266 189.836451,0.129176266 193.065672,0.129176266 C197.909503,0.129176266 201.612994,2.81946719 201.612994,8.11239822 C201.612994,11.6410189 201.612994,20.1871668 201.612994,33.7508418 L174.148858,33.7508418 C168.280899,31.7158295 165.346919,28.2381982 165.346919,23.3179479 C165.346919,18.3976976 168.280899,14.797546 174.148858,12.5174932 L192.887356,12.5174932 C192.887356,11.7896404 192.887356,11.094655 192.887356,10.4325368 C192.887356,9.43935945 192.225459,8.92883321 191.247275,8.92883321 C190.595153,8.92883321 181.961701,8.92883321 165.346919,8.92883321 L165.346919,0.129176266 Z M176.107962,20.7287449 C174.915445,20.7287449 173.948718,21.6954715 173.948718,22.8879892 C173.948718,24.0805069 174.915445,25.0472335 176.107962,25.0472335 L191.481781,25.0472335 C192.674299,25.0472335 193.641026,24.0805069 193.641026,22.8879892 C193.641026,21.6954715 192.674299,20.7287449 191.481781,20.7287449 L176.107962,20.7287449 Z" id="Combined-Shape" fill="#009EFF"></path>
                <path d="M219.424257,0.176936415 C235.19118,0.176936415 244.053695,0.176936415 246.011804,0.176936415 C248.948967,0.176936415 255.749298,3.29503438 255.888678,10.9765381 C256.028057,18.6580418 249.31413,21.7688102 244.371804,21.6492151 L254.420054,33.77039 L242.813681,33.77039 L232.98393,21.2981554 L228.349774,21.2981554 L228.349774,33.77039 L219.424257,33.77039 L219.424257,0.176936415 Z M228.361673,8.98245614 L228.361673,12.437247 L245.290148,12.437247 C246.244163,12.437247 247.017544,11.6638657 247.017544,10.7098516 C247.017544,9.75583741 246.244163,8.98245614 245.290148,8.98245614 L245.290148,8.98245614 L228.361673,8.98245614 Z" id="Combined-Shape" fill="#009EFF"></path>
            </g>
        </g>
    </g>
</svg>