<?xml version="1.0" encoding="UTF-8"?>
<svg width="256px" height="100px" viewBox="0 0 256 100" version="1.1" xmlns="http://www.w3.org/2000/svg" xmlns:xlink="http://www.w3.org/1999/xlink">
    <!-- Generator: Sketch 47.1 (45422) - http://www.bohemiancoding.com/sketch -->
    <title>Gnosis</title>
    <desc>Created with Sketch.</desc>
    <defs></defs>
    <g id="Classic" stroke="none" stroke-width="1" fill="none" fill-rule="evenodd">
        <g transform="translate(-906.000000, -5523.000000)" id="Gnosis" fill="#41A4C1">
            <g transform="translate(906.000000, 5523.000000)">
                <path d="M169.268141,25.3918699 L165.119059,29.8874077 C173.160282,52.4916837 150.299544,63.4901528 140.169701,52.4916837 L128.208254,64.4535826 L117.773924,53.9343248 C91.8738381,69.4627644 83.7543168,39.0455929 91.6453249,29.8874077 L87.1483667,25.3918699 C64.6512323,61.4405666 93.7380826,99.4861789 128.123864,99.4861789 C155.270925,99.4861789 190.974173,72.0254462 169.268141,25.3918699 Z" id="Fill-1"></path>
                <path d="M96.9576887,34.9658537 C95.6757698,36.6750788 94.9073171,38.810446 94.9073171,41.1181329 C94.9073171,46.6719504 99.4353666,51.2 104.989184,51.2 C107.295707,51.2 109.432238,50.4315473 111.141463,49.0634685 L96.9576887,34.9658537 Z" id="Fill-3"></path>
                <path d="M145.691057,48.231553 C147.325209,49.3491019 149.215905,49.9512195 151.364316,49.9512195 C156.952061,49.9512195 161.508943,45.395509 161.508943,39.8077642 C161.508943,37.7436959 160.906826,35.7663137 159.789277,34.1333333 L145.691057,48.231553 Z" id="Fill-5"></path>
                <path d="M94.461298,18.2851669 L128.20813,51.1415778 L161.207001,18.9654859 C153.383021,9.91686173 142.383398,5.32119751 128.20813,5.1784932 C114.032863,5.03578889 102.783919,9.40468011 94.461298,18.2851669 Z M128.463547,58.2764228 L87.8308943,17.8779908 C99.5377303,5.95933026 112.883483,1.30941522e-15 127.868154,0 C142.852824,0 156.147722,5.95933026 167.752846,17.8779908 L128.463547,58.2764228 Z" id="Fill-7"></path>
                <path d="M83.2520325,83.6682927 C38.4676356,81.9998996 10.7169581,67.2920405 0,39.5447154 L72.4363787,39.5447154 C70.2140167,58.0328848 73.8192347,72.7407439 83.2520325,83.6682927 Z" id="Fill-9"></path>
                <path d="M172.747967,83.6682927 C181.744931,70.3071269 184.933888,55.5992678 182.314841,39.5447154 L256,39.5447154 C244.926851,67.1695868 217.176174,81.8774459 172.747967,83.6682927 Z" id="Fill-11"></path>
            </g>
        </g>
    </g>
</svg>