<?xml version="1.0" encoding="UTF-8"?>
<svg width="119px" height="256px" viewBox="0 0 119 256" version="1.1" xmlns="http://www.w3.org/2000/svg" xmlns:xlink="http://www.w3.org/1999/xlink">
    <!-- Generator: Sketch 47.1 (45422) - http://www.bohemiancoding.com/sketch -->
    <title>Golem</title>
    <desc>Created with Sketch.</desc>
    <defs></defs>
    <g id="Classic" stroke="none" stroke-width="1" fill="none" fill-rule="evenodd">
        <g transform="translate(-2782.000000, -2488.000000)" id="Golem" fill="#002355">
            <g transform="translate(2782.000000, 2488.000000)">
                <path d="M50.3881918,109.321957 C39.4621834,109.339436 28.9808876,104.996721 21.2691846,97.2567107 C13.5737232,89.4065666 9.20393854,79.1588416 9.20393854,68.1377035 C9.19372949,57.2132419 13.5353619,46.7345758 21.2691846,39.0186962 C28.964646,31.1685522 39.3670536,26.9534502 50.3881918,26.9534502 C61.3142001,26.9359711 71.7956506,31.2788409 79.507199,39.0186962 C87.357343,46.7141576 91.572445,57.1165653 91.572445,68.1377035 C91.5899241,79.0637118 87.247209,89.5451623 79.507199,97.2567107 C71.8117376,105.145525 61.4480006,109.321957 50.3881918,109.321957 M79.507199,176.454223 C87.2026604,184.304367 91.572445,194.552092 91.572445,205.57323 C91.5899241,216.499239 87.247209,226.980534 79.507199,234.692237 C71.8117376,242.542381 61.40933,246.757483 50.3881918,246.757483 C39.4621834,246.774963 28.9808876,242.432093 21.2691846,234.692237 C13.5737232,226.842093 9.20393854,216.594368 9.20393854,205.57323 C9.1864594,194.647222 13.5293292,184.165771 21.2691846,176.454223 C28.964646,168.604079 39.3670536,164.388977 50.3881918,164.388977 C61.4480006,164.427648 71.8117376,168.604079 79.507199,176.454223 M100.776062,67.9830208 C100.775443,56.1672779 96.6287112,44.7264857 89.0588521,35.6543488 L118.371213,6.34198829 L111.835871,0 L82.5235105,29.3123605 C73.474576,21.7715818 62.2600845,17.5951504 50.3881918,17.5951504 C22.5405212,17.6141764 -0.0190139393,40.2046481 1.20255542e-05,68.0523186 C0.00913830139,81.396326 5.30748281,94.1924475 14.733843,103.63737 C23.0867056,111.990232 33.9918318,117.210771 45.7090419,118.216209 L45.7090419,155.378713 C33.9659998,156.352595 22.968064,161.528895 14.733843,169.957552 C-4.91069779,189.668297 -4.91069779,221.555505 14.733843,241.26625 C24.2854961,250.817903 36.8534607,255.999771 50.3881918,255.999771 C63.7622076,256.040143 76.5982372,250.735921 86.0425406,241.26625 C95.5941937,231.714597 100.776062,219.146632 100.776062,205.611901 C100.776062,192.07717 95.5941937,179.509205 86.0425406,169.957552 C77.6896779,161.604689 66.7845517,156.38415 55.0673417,155.378713 L55.0673417,118.216209 C66.8125493,117.25037 77.81296,112.072678 86.0425406,103.63737 C95.5941937,94.0857165 100.776062,81.5177519 100.776062,67.9830208 Z" id="Logo"></path>
            </g>
        </g>
    </g>
</svg>