<?xml version="1.0" encoding="UTF-8"?>
<svg width="256px" height="256px" viewBox="0 0 256 256" version="1.1" xmlns="http://www.w3.org/2000/svg" xmlns:xlink="http://www.w3.org/1999/xlink">
    <!-- Generator: Sketch 47.1 (45422) - http://www.bohemiancoding.com/sketch -->
    <title>Komodo</title>
    <desc>Created with Sketch.</desc>
    <defs></defs>
    <g id="Classic" stroke="none" stroke-width="1" fill="none" fill-rule="evenodd">
        <g transform="translate(-2176.000000, -1805.000000)" id="Komodo">
            <g transform="translate(2176.000000, 1805.000000)">
                <path d="M127.859,203.783032 L74.43165,181.70885 L52.29965,128.14085 L74.43165,74.57285 L35.52415,42.43185 L0.00015,127.99985 L35.52415,213.56835 L42.00865,220.05285 C70.5788303,232.015746 99.1485123,244.11918 127.859,255.941729 L127.859,256 L128,256 C156.6165,244.1585 185.2335,232.035 213.85,220.0525 L220.335,213.5685 L255.859,128 L220.335,42.4315 L181.427,74.4315 L203.5595,128 L181.427,181.5685 L127.859,203.7 L127.859,203.783032 Z" id="Combined-Shape" fill="#598282"></path>
                <path d="M128,0 L128,52.2995 L74.4315,74.4315 L35.524,42.4315 L42.009,35.9475 C70.6255,23.965 99.3835,11.8415 128,0 Z M220.4756,42.43165 L181.5686,74.29065 L128.0001,52.15865 L128.0001,0.00015 C156.6166,11.98265 185.2336,23.96465 213.9911,35.80615 L220.4756,42.43165 Z" id="Combined-Shape" fill="#FBBB31"></path>
                <path d="M128,74.43165 L128,181.56815 L90.0795,165.92115 L74.4315,128.00015 L90.0795,90.22015 L128,74.43165 Z M128,181.56835 L128,74.43185 L165.921,90.22035 L181.5685,127.99985 L165.921,165.92085 L128,181.56835 Z" id="Combined-Shape" fill="#326464"></path>
                <polygon id="Fill-5" fill="#598282" points="128 74.43165 90.0795 90.22015 74.4315 128.00015 90.0795 165.92115 128 181.56815"></polygon>
                <path d="M128,256 C156.6165,244.1585 185.2335,232.035 213.85,220.0525 L220.335,213.5685 L255.859,128 L220.335,42.4315 L181.427,74.4315 L203.5595,128 L181.427,181.5685 L127.859,203.7 L127.859,256 L128,256 Z" id="Fill-7" fill="#326464"></path>
                <path d="M220.4756,42.43165 L213.9911,35.80615 C185.2336,23.96465 156.6166,11.98265 128.0001,0.00015 L128.0001,52.15865 L181.5686,74.29065 L220.4756,42.43165 Z" id="Fill-9" fill="#FAAA00"></path>
            </g>
        </g>
    </g>
</svg>