<?xml version="1.0" encoding="UTF-8"?>
<svg width="256px" height="219px" viewBox="0 0 256 219" version="1.1" xmlns="http://www.w3.org/2000/svg" xmlns:xlink="http://www.w3.org/1999/xlink">
    <!-- Generator: Sketch 47.1 (45422) - http://www.bohemiancoding.com/sketch -->
    <title>MobileGo</title>
    <desc>Created with Sketch.</desc>
    <defs></defs>
    <g id="Classic" stroke="none" stroke-width="1" fill="none" fill-rule="evenodd">
        <g transform="translate(-3388.000000, -6849.000000)" id="MobileGo" fill-rule="nonzero">
            <g transform="translate(3388.000000, 6849.000000)">
                <polygon id="Shape" fill="#ED462F" points="92.5457993 75.8453039 148.107794 20.3492706 127.734807 0 51.801105 75.8453039 127.734807 151.690608 203.668508 75.8453039 166.011018 38.2316527 145.638031 58.5796438 162.923814 75.8453039 127.734807 110.993346"></polygon>
                <path d="M72.7889192,122.716949 L52.4330996,143.094445 L107.950484,198.672228 L128.307584,219.049724 L148.664683,198.672228 L204.182068,143.094445 L183.824968,122.716949 L128.307584,178.293451 L72.7889192,122.716949 Z M196.780219,109.74739 L217.136807,89.3691257 L256,128.27383 L235.643412,148.651967 L196.780219,109.74739 Z M20.3563316,148.034222 L0,127.655958 L38.8630651,88.7513812 L59.2196528,109.129646 L20.3563316,148.034222 Z" id="Shape" fill="#48AFC3"></path>
            </g>
        </g>
    </g>
</svg>