<?xml version="1.0" encoding="UTF-8"?>
<svg width="247px" height="256px" viewBox="0 0 247 256" version="1.1" xmlns="http://www.w3.org/2000/svg" xmlns:xlink="http://www.w3.org/1999/xlink">
    <!-- Generator: Sketch 47.1 (45422) - http://www.bohemiancoding.com/sketch -->
    <title>Neblio</title>
    <desc>Created with Sketch.</desc>
    <defs></defs>
    <g id="Classic" stroke="none" stroke-width="1" fill="none" fill-rule="evenodd">
        <g transform="translate(-2176.000000, -6831.000000)" id="Neblio">
            <g transform="translate(2176.000000, 6831.000000)">
                <path d="M184.595958,29.2706052 L187.669871,30.9289763 L187.669871,30.9289763 C223.356677,50.1819517 245.603505,87.4619861 245.603505,128.011032 L245.603505,128.011032 C245.603505,168.560078 223.356677,205.840113 187.669871,225.093088 L184.595958,226.751459 C146.518258,247.294319 100.658565,247.294319 62.5808647,226.751459 L59.5069519,225.093088 L59.5069519,225.093088 C23.8201466,205.840113 1.57331778,168.560078 1.57331778,128.011032 L1.57331778,128.011032 L1.57331778,128.011032 C1.57331778,87.4619861 23.8201466,50.1819517 59.5069519,30.9289763 L62.5808647,29.2706052 L62.5808647,29.2706052 C100.658565,8.72774547 146.518258,8.72774547 184.595958,29.2706052 L184.595958,29.2706052 Z M124.227772,54.9683683 L56.4400705,91.5397269 L56.4400705,164.682444 L124.227772,201.253803 L192.015474,164.682444 L192.015474,91.5397269 L124.227772,54.9683683 Z" id="Combined-Shape" fill="#5879B7"></path>
                <path d="M57.4580619,97.3362637 L57.4580619,92.2891508 L5.25554446,64.0358042 C1.83076901,69.5504555 0.0108249016,75.9105181 0,82.4020779 L0,128.291548 L0.127872128,128.361878 L57.4580619,97.3362637 Z" id="Shape" fill="#338ECA" fill-rule="nonzero"></path>
                <polyline id="Shape" fill="#5486C0" fill-rule="nonzero" points="0.129150849 128.363157 57.4580619 159.388771 57.4580619 97.3375425 0.129150849 128.363157"></polyline>
                <path d="M190.768591,91.8138852 L190.768591,97.3362637 L246.793207,127.657303 L246.793207,82.4020779 C246.793207,76.0736863 245.04008,69.9831369 241.876523,64.6278521 L190.768591,91.8138852 Z" id="Shape" fill="#5A72B1" fill-rule="nonzero"></path>
                <path d="M57.4580619,161.854146 L57.4580619,159.39005 L0.127872128,128.364436 L0,173.596643 C0,180.373866 2.00759241,186.882557 5.60975025,192.497423 L57.5667307,164.593017 L57.4580619,161.854146 Z" id="Shape" fill="#3DA6DE" fill-rule="nonzero"></path>
                <polyline id="Shape" fill="#5B82BE" fill-rule="nonzero" points="185.495145 88.9708691 185.495145 28.0410789 129.205834 58.5053347 185.495145 88.9708691"></polyline>
                <path d="M190.768591,91.8236963 L241.875245,64.6278521 C238.487912,58.8953447 233.482997,54.0144655 227.218541,50.6207393 L185.495145,28.0410789 L185.495145,88.9708691 L190.768591,91.8236963 Z" id="Shape" fill="#5D69AA" fill-rule="nonzero"></path>
                <polyline id="Shape" fill="#1D66A0" fill-rule="nonzero" points="124.081998 189.516723 180.023497 159.24044 180.023497 158.639441 124.081998 128.363157 124.081998 189.516723"></polyline>
                <polygon id="Shape" fill="#3EA2D9" fill-rule="nonzero" points="62.0128671 228.343816 62.6867532 228.708252 119.38014 198.026613 62.0128671 166.979261"></polygon>
                <path d="M57.5667532,164.571429 L5.61102897,192.496144 C8.97406593,197.738901 13.7245155,202.214426 19.5721079,205.375425 L62.017982,228.343816 L62.017982,166.979261 L57.5667532,164.571429 Z" id="Shape" fill="#4EADDF" fill-rule="nonzero"></path>
                <path d="M124.472008,55.9453347 L129.203277,58.5027772 L185.491309,28.0372428 L142.964875,5.02025974 C137.164268,1.90193018 130.698933,0.223977892 124.113966,0.127872128 L124.472008,55.9453347 Z" id="Shape" fill="#828ABE" fill-rule="nonzero"></path>
                <path d="M119.38014,58.6997003 L124.469416,55.9275029 L124.111409,0.127872128 C117.983355,0.014441334 111.906785,1.2653971 106.321838,3.79012987 L62.1215584,27.7124476 L119.38014,58.6997003 Z" id="Shape" fill="#5977B5" fill-rule="nonzero"></path>
                <polyline id="Shape" fill="#5B6EAE" fill-rule="nonzero" points="62.1215584 27.7124476 62.0115884 27.76999 62.0115884 89.7470529 119.378861 58.6997003 62.1215584 27.7124476"></polyline>
                <path d="M57.4580619,92.2290509 L59.8876324,90.8940659 L62.0051948,89.7432168 L62.0051948,27.7712687 L17.1796204,52.0362837 C12.3481143,55.0828168 8.27102741,59.1861369 5.25554446,64.0370829 L57.4580619,92.2891508 L57.4580619,92.2290509 Z" id="Shape" fill="#5879B7" fill-rule="nonzero"></path>
                <path d="M124.472008,200.782258 L124.113966,255.872128 C130.700431,255.774556 137.166962,254.095319 142.968711,250.975904 L184.823816,228.324635 L129.205834,198.224815 L124.472008,200.782258 Z" id="Shape" fill="#3190CD" fill-rule="nonzero"></path>
                <path d="M119.38014,198.025335 L62.6867532,228.714645 L103.820659,250.978462 C110.052042,254.32559 117.134932,256.017349 124.206998,255.878508 L124.489982,200.797379 L119.38014,198.025335 Z" id="Shape" fill="#48ABDF" fill-rule="nonzero"></path>
                <polygon id="Shape" fill="#489DD3" fill-rule="nonzero" points="129.205834 198.2197 184.823816 228.31952 185.495145 227.955085 185.495145 167.756723"></polygon>
                <path d="M190.768591,164.901339 L185.496424,167.755445 L185.496424,227.955085 L227.218541,205.374146 C233.282238,202.092947 238.177183,197.417942 241.559401,191.924555 L190.768591,164.901339 Z" id="Shape" fill="#3F9AD2" fill-rule="nonzero"></path>
                <path d="M190.768591,164.941041 L241.559401,191.928392 C244.970852,186.421203 246.783009,180.073561 246.793207,173.595365 L246.793207,129.069011 L190.768591,159.39005 L190.768591,164.941041 Z" id="Shape" fill="#6998CE" fill-rule="nonzero"></path>
                <polyline id="Shape" fill="#467BB9" fill-rule="nonzero" points="190.768591 159.39005 246.793207 129.069011 246.793207 127.657303 190.768591 97.334985 190.768591 159.39005"></polyline>
                <polygon id="Shape" fill="#6580BB" fill-rule="nonzero" points="180.022218 158.639441 180.022218 98.0881518 124.080719 128.363157"></polygon>
            </g>
        </g>
    </g>
</svg>