<?xml version="1.0" encoding="UTF-8"?>
<svg width="256px" height="245px" viewBox="0 0 256 245" version="1.1" xmlns="http://www.w3.org/2000/svg" xmlns:xlink="http://www.w3.org/1999/xlink">
    <!-- Generator: Sketch 47.1 (45422) - http://www.bohemiancoding.com/sketch -->
    <title>Pura</title>
    <desc>Created with Sketch.</desc>
    <defs></defs>
    <g id="Classic" stroke="none" stroke-width="1" fill="none" fill-rule="evenodd">
        <g transform="translate(-1570.000000, -5451.000000)" id="Pura" fill="#000000">
            <g transform="translate(1570.000000, 5451.000000)">
                <path d="M59.8868895,-1.98951966e-13 L170.164867,-1.98951966e-13 C200.66113,1.82365227 234.229182,14.532597 247.708295,44.0662211 C264.569586,81.6736353 256.190689,134.543066 218.199962,156.0029 C183.176093,176.317308 141.281712,168.295941 102.821768,169.962221 C101.781373,189.182498 107.089914,211.527895 93.8741469,227.779196 C88.5618226,235.540699 64.2060676,244.812339 64.2060676,244.812339 C64.2060676,244.812339 61.9614409,223.95271 61.1382679,176.994407 C60.6180193,164.024267 62.6990137,149.49167 73.6803807,141.054399 C86.5345201,129.855489 104.74946,133.345319 120.361929,132.77194 C143.936544,132.147571 168.708846,135.793442 191.087206,126.572997 C223.925253,112.978386 225.12294,57.400968 192.024104,43.3905554 C158.249057,30.1082317 120.93454,42.1927053 86.2225959,34.8483351 C70.4516077,30.3667642 63.1123588,17.182044 59.8868895,-1.98951966e-13 Z" id="Fill-1"></path>
                <path d="M0.135898542,63.9801283 L86.8030383,64.7182522 C107.766125,66.3521735 121.532261,85.7991729 123.722365,105.66812 C94.6248835,105.510239 65.475037,106.617166 36.3713045,105.299214 C12.9668291,105.738768 0.628107814,77.5828598 0.135898542,63.9801283 Z" id="Fill-3"></path>
            </g>
        </g>
    </g>
</svg>