<?xml version="1.0" encoding="UTF-8"?>
<svg width="256px" height="256px" viewBox="0 0 256 256" version="1.1" xmlns="http://www.w3.org/2000/svg" xmlns:xlink="http://www.w3.org/1999/xlink">
    <!-- Generator: Sketch 47.1 (45422) - http://www.bohemiancoding.com/sketch -->
    <title>Status</title>
    <desc>Created with Sketch.</desc>
    <defs></defs>
    <g id="Classic" stroke="none" stroke-width="1" fill="none" fill-rule="evenodd">
        <g transform="translate(-3388.000000, -3963.000000)" id="Status">
            <g transform="translate(3388.000000, 3963.000000)">
                <rect id="Rectangle-12" fill="#5B6DEE" x="0" y="0" width="256" height="256" rx="23"></rect>
                <path d="M55.3846154,167.066022 C55.3846154,190.747712 71.3902116,202.185444 94.7495521,202.185444 C132.904916,202.185444 168.705701,173.059138 169.756657,135.285693 C164.705976,136.190578 158.928991,135.968073 153.797781,135.939346 C133.106472,135.937816 123.312742,131.946718 102.624376,131.946718 C74.5969819,131.946718 55.3846154,143.384333 55.3846154,167.066022 Z M86.5121105,119.618348 C88.4771785,81.9236212 124.551866,51.8863613 162.702756,51.8893046 C186.062096,51.8893046 202.067693,63.326919 202.067693,87.0084906 C202.067693,110.690298 182.856857,122.127912 154.827932,122.127912 C134.139566,122.126382 124.345836,118.135284 103.654527,118.135284 C98.5233174,118.106558 91.5629092,118.713464 86.5121105,119.618348 Z" id="Fill-3" fill="#FFFFFF"></path>
            </g>
        </g>
    </g>
</svg>