<?xml version="1.0" encoding="UTF-8"?>
<svg width="229px" height="256px" viewBox="0 0 229 256" version="1.1" xmlns="http://www.w3.org/2000/svg" xmlns:xlink="http://www.w3.org/1999/xlink">
    <!-- Generator: Sketch 47.1 (45422) - http://www.bohemiancoding.com/sketch -->
    <title>Storj</title>
    <desc>Created with Sketch.</desc>
    <defs></defs>
    <g id="Classic" stroke="none" stroke-width="1" fill="none" fill-rule="evenodd">
        <g transform="translate(-5223.000000, -6148.000000)" id="Storj" fill-rule="nonzero" fill="#2E8DFB">
            <g transform="translate(5223.000000, 6148.000000)">
                <path d="M20.9655085,176.551724 C18.0538512,176.551724 15.6934866,178.912093 15.6934866,181.823755 C15.6934866,184.735417 18.0538512,187.095785 20.9655085,187.095785 C23.8771657,187.095785 26.2375303,184.735417 26.2375303,181.823755 C26.2375303,180.88869 25.9820749,180.038456 25.5569585,179.188221 C24.5981363,177.561689 22.8535975,176.560308 20.9655085,176.552688 M119.172414,21.2107368 C119.172414,18.2990698 116.812045,15.9386973 113.900383,15.9386973 C110.988721,15.9386973 108.628352,18.2990698 108.628352,21.2107368 C108.628352,24.1224037 110.988721,26.4827762 113.900383,26.4827762 C116.805255,26.4664489 119.156087,24.1156139 119.172414,21.2107368 M207.08046,79.9387149 C209.992122,79.9387149 212.35249,77.5783424 212.35249,74.6666755 C212.35249,71.7550085 209.992122,69.394636 207.08046,69.394636 C204.168798,69.394636 201.808429,71.7550085 201.808429,74.6666755 C201.811819,75.5613359 202.046249,76.4399519 202.489002,77.2173824 C203.411194,78.891514 205.169147,79.9334436 207.08046,79.9387149 M23.5686214,69.6094993 C21.0078757,68.157827 17.8490421,69.0123781 16.39834,71.573128 C14.947638,74.1338779 15.8012198,77.2927167 18.3619655,78.7434212 C20.9227111,80.1941257 24.0815447,79.3405424 25.5322468,76.7797925 C26.9839167,74.3042074 26.129367,71.0602037 23.5686214,69.6094993 M209.226927,177.317612 C208.468232,176.807664 207.541363,176.637039 206.614494,176.552208 C204.730818,176.52651 202.979227,177.525603 202.029959,179.167188 C201.080691,180.808773 201.080691,182.838737 202.029959,184.480322 C202.979227,186.121907 204.730818,187.121 206.614494,187.095301 C208.468232,187.095301 210.149975,186.075406 211.165709,184.459769 C212.599012,181.993898 211.755274,178.762624 209.226927,177.317612 M108.657546,235.377971 C108.401929,237.776292 109.848816,240.088196 112.060623,240.9446 C112.570892,241.115493 113.167009,241.287356 113.677278,241.287356 C116.338337,241.282978 118.622264,239.378978 119.122394,236.748024 C119.516427,233.877554 117.539118,231.223599 114.691282,230.800561 C111.843446,230.377522 109.188872,232.343423 108.74243,235.206108 C108.696333,235.252197 108.666516,235.312225 108.657546,235.377" id="Shape"></path>
                <path d="M216.077754,162.178111 C215.921562,116.203585 216.172307,93.0706002 216.82999,92.7791571 C227.018286,87.0823567 230.745711,74.1561959 225.048963,63.9660394 C219.352215,53.7758829 208.317939,49.2479969 194.45646,56.9585837 L135.615042,22.1197068 C136.068425,9.98291426 125.911431,0 114.294289,0 C102.677147,0 92.9237174,9.63997499 92.9237174,21.2509163 C92.9237174,22.2370204 93.0330552,23.1138334 93.142393,24.0986955 L34.2558488,57.4215307 C28.252826,52.7205755 20.1854162,51.6072807 13.1326733,54.5065525 C6.07993048,57.4058244 1.13025847,63.8702373 0.172777514,71.4325463 C-0.784703445,78.9948553 3.73353428,90.6276287 13.2744299,93.2736131 L13.2744299,161.984908 C2.42389504,166.366489 -2.83798692,178.639387 1.54546516,189.480322 C5.92891724,200.321258 20.2800002,207.433022 33.442801,198.380638 L93.7434931,232.981488 C91.8797805,244.483139 99.5254798,253.856581 111.033284,255.719498 C122.541088,257.582416 135.223781,250.151558 135.223781,233.86072 C135.2142,233.176811 154.958427,221.371605 194.45646,198.445103 C204.863174,206.821006 219.944757,202.01571 225.564309,191.974849 C231.039897,181.785935 228.462145,168.234728 216.077754,162.178111 Z M197.67339,195.842284 C191.307929,192.091411 188.124554,184.704342 189.829658,177.545341 L160.530643,159.768072 C152.136713,168.278104 142.735606,165.817292 134.904447,163.194286 C131.738092,164.199889 126.288467,165.074225 118.555573,165.817292 L118.555573,219.507692 C126.057197,220.960842 130.739502,228.41759 130.697072,235.801078 C130.654643,243.184565 124.94954,251.599903 114.163354,251.680944 C103.377168,251.761985 97.5887748,242.823919 97.6296356,235.73734 C97.6704963,228.650761 100.646426,223.337918 108.323665,219.511557 L108.323665,164.421058 C104.984943,163.389332 101.420876,161.23415 98.2488669,159.768072 C87.9660996,161.822399 79.9819385,161.446141 72.1431103,155.961926 L37.728786,177.201307 C39.8929388,186.268009 34.2964691,195.372229 25.2280083,197.537311 C16.1595476,199.702394 7.05233479,194.108658 4.88531927,185.042639 C2.71830376,175.976621 8.31189844,166.870635 17.3796751,164.702691 C22.8365207,163.33944 28.6336137,164.92947 32.8454633,168.793733 L65.2131484,148.689536 C55.700371,134.754951 59.034433,120.246147 69.0795954,108.640967 L32.6147653,86.6224186 C25.9129238,92.9864047 15.3356135,92.6462362 8.97015281,85.8274036 C5.91109802,82.5787963 4.27478547,78.2442968 4.42406549,73.7850753 C4.57334551,69.3258538 6.49588101,65.1104377 9.76535209,62.0735904 C16.5857647,55.7096043 27.044504,56.0497728 33.4099646,62.8686054 C37.2764117,66.9596473 38.7533944,72.6420078 37.5019544,78.0975893 L77.5999559,102.274404 C81.5552197,103.320357 89.1870752,103.753955 94.9427854,98.9736487 C98.7799255,95.786778 103.616553,92.8957168 109.452668,90.3004653 L109.452668,35.4798854 C101.153983,32.9801622 96.4936258,24.2285539 98.9939283,15.9317921 C101.494231,7.63503035 110.254311,3.08914193 118.552995,5.58886516 C126.851679,8.08858838 131.512037,16.8401967 129.011734,25.1369585 C127.510213,30.1614592 123.57866,34.0921014 118.552995,35.5932749 L118.552995,90.3004653 C118.552995,90.3004653 137.42058,89.4569268 148.139969,103.020589 L190.624857,78.4429119 C188.578218,69.3511351 194.148479,60.2580697 203.243651,58.2131931 C212.338824,56.1683164 221.432707,61.7359989 223.478057,70.8290642 C225.523408,79.9221296 219.954435,89.0139064 210.859263,91.0587831 C205.362255,92.2968099 199.609369,90.720301 195.512046,86.8530632 L153.48211,111.087995 C156.533425,112.997297 159.083394,119.044741 159.257538,121.853054 C165.728861,127.726395 172.807901,138.400593 166.327736,151.698089 L195.059672,169.020512 C200.446782,164.00049 208.495225,163.121748 214.839126,166.860957 C222.682858,171.520235 225.407415,181.749772 220.638797,189.818467 C215.975861,197.773771 205.630538,200.501562 197.67339,195.842284 Z" id="Shape"></path>
                <path d="M146.99185,125.42755 C146.87862,124.519131 146.765389,123.725229 146.650871,122.816809 C146.539795,122.202244 146.388059,121.595728 146.196662,121.001257 C146.196662,120.774796 146.083431,120.547048 146.083431,120.320586 C145.856969,119.639915 145.629221,118.844726 145.40276,118.164055 L145.40276,118.050825 C143.959631,114.243461 141.75866,110.768659 138.933167,107.836897 C138.252496,107.156226 137.685055,106.588785 136.889867,105.906828 L136.776636,105.793597 C136.095965,105.226156 135.415294,104.658716 134.620105,104.204506 L134.506874,104.091276 C133.826203,103.637066 133.031015,103.069626 132.350343,102.729933 L132.237113,102.616703 C131.503908,102.193346 130.745959,101.814372 129.967351,101.481822 L129.74089,101.368591 C128.946988,101.027612 128.151799,100.68792 127.244666,100.346941 L127.131436,100.23371 C126.223016,100.007249 125.429114,99.6662697 124.520695,99.553039 L124.407464,99.553039 C123.509521,99.3465567 122.599851,99.1948735 121.683493,99.0988293 L121.570262,99.0988293 C116.736503,98.4120606 111.807196,98.9988406 107.269734,100.801151 L106.702294,101.25536 C106.021623,101.481822 104.886742,102.049262 104.206071,102.390241 C103.851859,102.624141 103.470837,102.814652 103.07119,102.957682 C102.730211,103.070912 102.162771,103.525122 101.823078,103.751583 C101.483386,103.978045 100.688198,104.545485 100.233988,104.886464 L99.8930089,105.112926 C99.2123377,105.567135 98.6448973,106.134576 97.9629395,106.702016 L97.395499,107.269457 C96.7148279,107.950128 96.1473875,108.517568 95.579947,109.199526 C94.2299123,108.973375 92.8634787,108.859326 91.4946334,108.858547 C91.0404237,108.858547 90.7007315,108.858547 90.3597525,108.971778 C85.139558,109.198239 80.145825,111.35477 76.2869728,114.87393 C74.3569034,116.576252 72.7690996,118.734069 71.5261349,121.002544 L71.4051838,121.234152 C71.0553403,121.893353 70.7518005,122.576102 70.4967645,123.277453 C70.3835338,123.503914 70.3835338,123.618432 70.270303,123.844893 C70.0298125,124.432818 69.8399758,125.04021 69.7028626,125.660445 C69.5896319,125.886907 69.5896319,126.227885 69.4764011,126.454347 C69.3631704,127.021787 69.2499396,127.589228 69.1354222,128.269899 C69.1354222,128.49636 69.0221914,128.724109 69.0221914,129.063801 C68.9278315,129.930668 68.890008,130.802759 68.9089607,131.674541 C68.8900504,132.395243 68.927911,133.116314 69.0221914,133.831072 C69.0221914,134.057534 69.1354222,134.285282 69.1354222,134.624974 C69.2486529,135.079184 69.2486529,135.533394 69.3618837,135.986317 C69.4751144,136.43924 69.4751144,136.553757 69.5883451,136.894736 C69.7174739,137.22114 69.7939142,137.56599 69.8148066,137.916386 C69.8148066,138.257365 70.0412681,138.597057 70.1557856,138.938036 C70.2485768,139.211154 70.362584,139.476597 70.4967645,139.731938 C70.6677152,140.102112 70.8193227,140.480916 70.9509742,140.866819 C71.0642049,141.09328 71.1774357,141.207798 71.1774357,141.434259 C72.7723899,145.172394 75.4645011,148.338316 78.8977134,150.513306 C80.6000347,151.534956 82.302356,152.443375 84.1179079,153.009529 C84.8218049,153.251498 85.5426083,153.441161 86.2744389,153.57697 L86.5009004,153.6902 L88.5442005,154.031179 L88.9984102,154.14441 C89.7923121,154.257641 90.5875007,154.257641 91.4946334,154.257641 C94.5595837,154.257641 97.5100165,153.6902 100.233988,152.442089 C100.914659,152.896298 101.482099,153.350508 102.164057,153.803431 L102.390519,153.916662 C102.957959,154.257641 103.63863,154.597333 104.320588,154.938312 L104.431246,154.938312 C110.918118,158.244164 118.404397,159.013069 125.427828,157.094843 L125.541058,157.094843 C126.562105,156.874405 127.552766,156.531368 128.491491,156.073193 L131.556442,154.71185 C134.474674,156.988556 138.069091,158.226542 141.770369,158.229724 C142.564271,158.229724 143.246229,158.116493 144.040131,158.116493 L144.607571,158.003262 C145.334827,157.894986 146.054956,157.743312 146.764102,157.549052 C147.463472,157.334085 148.146358,157.068758 148.807402,156.755151 L149.148381,156.64192 C149.829052,156.300941 150.396493,155.961249 151.078451,155.62027 C153.915653,153.804718 156.072184,151.080746 157.320295,148.015796 C157.774505,146.994146 158.000966,145.972496 158.228715,144.952133 L158.228715,144.611154 C158.341945,144.156944 158.341945,143.702734 158.455176,143.249811 C158.455176,142.682371 158.568407,142.11493 158.568407,141.54749 C158.568407,134.057534 153.915653,127.587941 146.98799,125.43141" id="Shape"></path>
            </g>
        </g>
    </g>
</svg>