<?xml version="1.0" encoding="UTF-8"?>
<svg width="256px" height="238px" viewBox="0 0 256 238" version="1.1" xmlns="http://www.w3.org/2000/svg" xmlns:xlink="http://www.w3.org/1999/xlink">
    <!-- Generator: Sketch 47.1 (45422) - http://www.bohemiancoding.com/sketch -->
    <title>Stratis</title>
    <desc>Created with Sketch.</desc>
    <defs>
        <linearGradient x1="-1.11022302e-14%" y1="50%" x2="100%" y2="50%" id="linearGradient-1">
            <stop stop-color="#53B6BE" offset="0%"></stop>
            <stop stop-color="#3790CA" offset="100%"></stop>
        </linearGradient>
    </defs>
    <g id="Classic" stroke="none" stroke-width="1" fill="none" fill-rule="evenodd">
        <g transform="translate(-1570.000000, -1814.000000)" id="Stratis" fill="url(#linearGradient-1)">
            <g transform="translate(1570.000000, 1814.000000)">
                <path d="M10.9282122,150.716112 L129.720501,227.320101 C203.740137,179.676403 241.447626,155.383083 242.842967,154.44014 C244.935979,153.025726 246.243127,150.092441 246.243127,148.448195 C246.243127,147.352031 246.254892,140.988522 246.278423,129.357667 C171.017223,177.202915 132.841399,201.452068 131.750953,202.105127 C130.115284,203.084715 126.520132,203.199337 124.808257,202.105127 C123.096382,201.010917 13.4661899,131.578277 7.97553151,127.678335 C2.48487317,123.778394 1.0228267,117.607045 0.339290869,113.917488 C-0.344244958,110.227932 0.191841034,88.2110428 0.339290869,86.459804 C0.486740705,84.7085651 1.21419233,82.9171173 3.05731882,81.635891 C4.90044531,80.3546647 117.273252,7.02554062 123.545726,3.02360294 C129.818201,-0.978334737 131.714322,-1.03729278 137.786701,3.02360294 C143.85908,7.08449866 247.261965,72.7071343 252.310292,75.9562593 C257.35862,79.2053843 257.09948,86.0927523 252.310292,89.1424623 C247.521105,92.1921724 141.909705,158.918004 135.937531,162.518951 C129.965356,166.119899 129.137138,166.120516 123.056145,162.307356 C119.002149,159.765249 81.4087985,136.21814 10.2760921,91.6660286 C10.2711506,105.546294 10.2711506,112.800916 10.2760921,113.429894 C10.2835044,114.373362 10.7163216,117.798996 14.6825899,120.460551 C17.3267687,122.234921 55.206292,146.295992 128.32116,192.643764 C202.356953,145.023642 241.123299,120.282828 244.620196,118.421321 C249.865542,115.629059 256.101025,119.691868 255.951606,124.702098 C255.802187,129.712327 256.119825,142.247486 255.799724,149.64266 C255.586324,154.572776 253.055493,158.880218 248.207233,162.564984 L134.183299,235.932224 C131.089261,237.897995 128.027987,237.897995 124.999478,235.932224 C125.007034,235.932992 85.2224037,210.269612 5.6455862,158.942084 L10.9282122,150.716112 Z M20.078832,82.4175535 L20.078832,82.4175535 C19.8378149,82.5749325 19.6336093,82.7824826 19.4801663,83.0260244 C18.8913568,83.9605709 19.1716322,85.1954949 20.1061787,85.7843043 L20.1061787,85.7843043 L128.6961,154.201195 C129.348413,154.612184 130.178879,154.611626 130.830639,154.199761 L241.627802,84.1841076 C241.876542,84.0269219 242.087536,83.8167878 242.245735,83.5686908 C242.839604,82.6373515 242.566031,81.4009255 241.634692,80.8070561 L241.634692,80.8070561 L131.877192,10.8200791 C131.214719,10.3976524 130.366279,10.402243 129.708416,10.8318135 L129.708416,10.8318135 L20.078832,82.4175535 Z" id="Logo"></path>
            </g>
        </g>
    </g>
</svg>