<?xml version="1.0" encoding="UTF-8"?>
<svg width="256px" height="134px" viewBox="0 0 256 134" version="1.1" xmlns="http://www.w3.org/2000/svg" xmlns:xlink="http://www.w3.org/1999/xlink">
    <!-- Generator: Sketch 47.1 (45422) - http://www.bohemiancoding.com/sketch -->
    <title>Syscoin</title>
    <desc>Created with Sketch.</desc>
    <defs></defs>
    <g id="Classic" stroke="none" stroke-width="1" fill="none" fill-rule="evenodd">
        <g transform="translate(-4617.000000, -4024.000000)" id="Syscoin" fill="#3B87C1">
            <g transform="translate(4617.000000, 4024.000000)">
                <path d="M0.15397533,87.0132803 C72.0163311,146.700005 151.999736,122.270662 163.142221,101.884586 C171.27048,87.0132803 168.639219,73.433898 145.354258,54.2883102 C173.798452,55.1645405 203.190692,76.9375907 176.618763,106.879988 C143.755177,143.912096 52.2997017,146.592038 0.15397533,87.0132803 Z" id="Fill-1"></path>
                <path d="M89.3119551,9.55196095 C29.7932766,32.454233 50.4615137,70.785483 80.8466916,82.1588016 C105.633501,91.5824479 124.902857,87.9791887 109.162383,68.4474819 C119.756156,92.5706929 58.5070617,75.9545421 59.0660466,44.3843605 C59.3747351,25.8497961 79.3475647,14.2206747 89.3119551,9.55196095 Z" id="Fill-3"></path>
                <path d="M103.383589,62.9392173 C57.4951497,53.2738699 70.4781508,20.1964295 110.167627,6.47243061 C143.912326,-5.19595739 211.859614,-0.926384209 255.98813,25.2186524 C188.834345,-6.27871833 136.819808,3.78953351 114.620297,12.1632212 C84.0280993,23.7026422 91.2060668,49.2498792 103.383589,62.9392173 Z" id="Fill-5"></path>
                <path d="M140.025367,49.8326812 C125.67221,34.4970693 166.183161,32.8119916 190.395038,50.4921466 C216.754802,71.1270917 217.304284,101.496827 181.786917,117.379306 C189.142102,115.826676 252.690772,91.2312281 195.455152,45.1795716 C172.446656,26.6669857 110.79015,28.0039007 140.025367,49.8326812 Z" id="Fill-7"></path>
            </g>
        </g>
    </g>
</svg>