<?xml version="1.0" encoding="UTF-8"?>
<svg width="256px" height="160px" viewBox="0 0 256 160" version="1.1" xmlns="http://www.w3.org/2000/svg" xmlns:xlink="http://www.w3.org/1999/xlink">
    <!-- Generator: Sketch 47.1 (45422) - http://www.bohemiancoding.com/sketch -->
    <title>TenX</title>
    <desc>Created with Sketch.</desc>
    <defs>
        <linearGradient x1="-1.11022302e-14%" y1="50%" x2="100%" y2="50%" id="linearGradient-1">
            <stop stop-color="#221F20" offset="0%"></stop>
            <stop stop-color="#3D3939" offset="100%"></stop>
        </linearGradient>
        <linearGradient x1="24.5942456%" y1="23.2591264%" x2="91.5236256%" y2="90.4782702%" id="linearGradient-2">
            <stop stop-color="#2A2728" offset="0%"></stop>
            <stop stop-color="#000000" offset="100%"></stop>
        </linearGradient>
        <linearGradient x1="9.27023633%" y1="9.33398665%" x2="85.6617639%" y2="86.2508498%" id="linearGradient-3">
            <stop stop-color="#000000" offset="0%"></stop>
            <stop stop-color="#353232" offset="100%"></stop>
        </linearGradient>
    </defs>
    <g id="Classic" stroke="none" stroke-width="1" fill="none" fill-rule="evenodd">
        <g transform="translate(-906.000000, -2536.000000)" id="TenX">
            <g transform="translate(906.000000, 2536.000000)">
                <path d="M219.188193,86.2757789 C218.214029,87.6347571 207.005649,99.7078886 185.563054,122.495174 L143.926532,80.9617581 L184.877921,36.8181911 C184.877921,36.8181911 216.297805,69.4410963 219.722278,74.2518822 C223.14675,79.0626681 220.64944,84.2373116 219.188193,86.2757789 Z M34.4906599,75.6652739 C41.6761232,67.7358053 70.9741248,36.8588535 70.9741248,36.8588535 L111.165819,79.7492484 L70.872214,122.956994 C70.872214,122.956994 45.9097682,96.7582675 33.9938446,83.3301911 C32.1480357,81.1824204 32.7671439,77.6945223 34.4906599,75.6652739 Z M253.236807,73.8827401 C250.186583,70.4854678 185.511042,0.102165605 185.409131,0.00025477707 C185.341191,-0.0676857749 165.744375,20.9446285 126.618685,63.0371975 L106.183967,40.7686887 L70.2740994,0.407898089 C26.4451646,47.8847403 3.66368674,72.6413482 1.92966594,74.6777218 C-0.671365269,77.7322821 -0.486404796,82.3069348 1.92966594,85.0946576 C13.4749398,98.0194984 70.6009094,159.893248 70.6009094,159.893248 L127.128471,98.996825 L185.20531,159.995159 C229.710174,111.667238 252.779463,86.5485007 254.413177,84.6389476 C256.863748,81.7746179 256.287031,77.2800123 253.236807,73.8827401 Z" id="Fill-1" fill="url(#linearGradient-1)"></path>
                <polygon id="Path-11" fill="url(#linearGradient-2)" points="70.8263227 37.0117885 87.4197454 19.6790289 126.618502 63.0386075 111.166655 79.7490844"></polygon>
                <polygon id="Path-12" fill="url(#linearGradient-3)" points="127.131634 98.9949944 143.930044 80.9596541 185.565433 122.500811 167.114132 140.989708"></polygon>
            </g>
        </g>
    </g>
</svg>