<?xml version="1.0" encoding="UTF-8"?>
<svg width="256px" height="256px" viewBox="0 0 256 256" version="1.1" xmlns="http://www.w3.org/2000/svg" xmlns:xlink="http://www.w3.org/1999/xlink">
    <!-- Generator: Sketch 47.1 (45422) - http://www.bohemiancoding.com/sketch -->
    <title>ZCoin</title>
    <desc>Created with Sketch.</desc>
    <defs></defs>
    <g id="Classic" stroke="none" stroke-width="1" fill="none" fill-rule="evenodd">
        <g transform="translate(-906.000000, -6148.000000)" id="ZCoin" fill="#58AE52">
            <g transform="translate(906.000000, 6148.000000)">
                <path d="M166.758298,172.767409 L214.961766,172.767409 L214.961766,214.926936 L70.1339648,214.926936 L249.920307,34.9881083 C255.782912,29.1205278 257.520026,20.2105209 254.480077,12.6043525 C251.223142,4.99828655 243.840614,0 235.372442,0 L20.6276608,0 C9.1196416,0 0,9.12738162 0,20.6451679 L0,172.767409 L89.2417024,83.4498631 L41.0382336,83.4498631 L41.0382336,41.0730636 L185.648845,41.0730636 L6.0797952,221.011789 C0.2171904,226.87937 -1.5199232,235.789479 1.5199232,243.395648 C4.77696,251.001611 12.159488,256 20.6276608,256 L235.372442,256 C246.66327,256 256,246.872618 256,235.354832 L256,83.4498631 L166.758298,172.767409 Z" id="Logo"></path>
            </g>
        </g>
    </g>
</svg>