<?xml version="1.0" encoding="UTF-8"?>
<svg width="223px" height="256px" viewBox="0 0 223 256" version="1.1" xmlns="http://www.w3.org/2000/svg" xmlns:xlink="http://www.w3.org/1999/xlink">
    <!-- Generator: Sketch 47.1 (45422) - http://www.bohemiancoding.com/sketch -->
    <title>ZenCash</title>
    <desc>Created with Sketch.</desc>
    <defs></defs>
    <g id="Classic" stroke="none" stroke-width="1" fill="none" fill-rule="evenodd">
        <g transform="translate(-1570.000000, -6148.000000)" id="ZenCash">
            <g transform="translate(1570.000000, 6148.000000)">
                <g id="1" transform="translate(0.219689, 76.799893)">
                    <polygon id="Polygon-4" fill="#C9B191" points="44.4978541 0 88.9957082 25.5449497 44.4978541 50.5403137 -4.26325641e-14 25.5449497"></polygon>
                    <polygon id="Polygon-4" fill="#EC8F2F" points="44.4978541 50.5407725 44.4978541 102.179799 -1.42261024e-14 76.634849 -4.26325641e-14 25.5449497"></polygon>
                    <polygon id="Polygon-4" fill="#0D0F06" points="44.4978541 50.5407725 88.9957082 25.5449497 88.9957082 76.634849 44.4978541 102.179799"></polygon>
                </g>
                <g id="2" transform="translate(133.493562, 153.490075)">
                    <polygon id="Polygon-4" fill="#C9B191" points="44.4978541 0 88.9957082 25.5449497 44.4978541 50.5403137 -4.26325641e-14 25.5449497"></polygon>
                    <polygon id="Polygon-4" fill="#EC8F2F" points="44.4978541 50.5407725 44.4978541 102.179799 -1.42261024e-14 76.634849 -4.26325641e-14 25.5449497"></polygon>
                    <polygon id="Polygon-4" fill="#0D0F06" points="44.4978541 50.5407725 88.9957082 25.5449497 88.9957082 76.634849 44.4978541 102.179799"></polygon>
                </g>
                <g id="3" transform="translate(133.493562, 0.549356)">
                    <polygon id="Polygon-4" fill="#C9B191" points="44.4978541 0 88.9957082 25.5449497 44.4978541 50.5403137 -4.26325641e-14 25.5449497"></polygon>
                    <polygon id="Polygon-4" fill="#EC8F2F" points="44.4978541 50.5407725 44.4978541 102.179799 -1.42261024e-14 76.634849 -4.26325641e-14 25.5449497"></polygon>
                    <polygon id="Polygon-4" fill="#0D0F06" points="44.4978541 50.5407725 88.9957082 25.5449497 88.9957082 76.634849 44.4978541 102.179799"></polygon>
                </g>
                <g id="4" transform="translate(133.493562, 128.000000) rotate(180.000000) translate(-133.493562, -128.000000) translate(88.995708, 76.909871)">
                    <polygon id="Polygon-4" fill="#C9B191" points="44.4978541 0 88.9957082 25.5449497 44.4978541 50.5403137 -4.26325641e-14 25.5449497"></polygon>
                    <polygon id="Polygon-4" fill="#EC8F2F" points="44.4978541 50.5407725 44.4978541 102.179799 -1.42261024e-14 76.634849 -4.26325641e-14 25.5449497"></polygon>
                    <polygon id="Polygon-4" fill="#0D0F06" points="44.4978541 50.5407725 88.9957082 25.5449497 88.9957082 76.634849 44.4978541 102.179799"></polygon>
                </g>
            </g>
        </g>
    </g>
</svg>