<?xml version="1.0" encoding="UTF-8"?>
<svg width="256px" height="121px" viewBox="0 0 256 121" version="1.1" xmlns="http://www.w3.org/2000/svg" xmlns:xlink="http://www.w3.org/1999/xlink">
    <!-- Generator: Sketch 47.1 (45422) - http://www.bohemiancoding.com/sketch -->
    <title>Aeternity</title>
    <desc>Created with Sketch.</desc>
    <defs></defs>
    <g id="Classic" stroke="none" stroke-width="1" fill="none" fill-rule="evenodd">
        <g transform="translate(-2782.000000, -4737.000000)" id="Aeternity" fill="#DE3F6B">
            <g transform="translate(2782.000000, 4737.000000)">
                <path d="M108.7232,22.2605536 C132.096,46.7853536 144.9472,81.3965536 174.6944,99.6493536 C196.1984,112.858954 226.2784,102.055754 236.8512,79.7581536 C242.2272,79.6557536 247.6288,79.6557536 253.0048,79.6813536 C245.6064,102.337354 224.123797,120.794954 197.148925,120.794954 C165.207528,120.794954 151.21815,110.53992 113.6128,55.7965536 C85.5087145,15.9856597 71.7442887,15.6346523 56.2459072,16.2804774 C40.7475258,16.9263025 16.0879458,29.5209484 15.9854772,61.7249247 C15.8873367,92.5686459 43.5519156,106.057642 56.2459072,106.124901 C68.9398988,106.192161 88.5919306,104.526567 110.5664,71.1309536 C114.0736,76.1485536 117.4784,81.2429536 120.8576,86.3629536 C103.161237,108.647263 87.3696088,120.794954 56.2459072,120.794954 C25.1222057,120.794954 -1.13686838e-12,90.5771896 -1.13686838e-12,61.7249247 C-1.13315344e-12,32.8726598 26.9687673,0.515933805 56.2459072,0.474953618 C85.5230471,0.433973431 97.4592,10.3565536 108.7232,22.2605536 Z" id="Fill-1"></path>
                <path d="M256,56.1293536 L256,70.9261536 C232.064,71.1565536 208.1024,71.0029536 184.1664,71.0285536 C184.192,66.7021536 184.192,62.4013536 184.1664,58.0749536 C203.0848,58.0237536 221.502646,58.1517536 240.395446,58.0237536 C237.205964,31.9371772 220.693393,16.7228319 195.955936,16.7228319 C171.218479,16.7228319 154.0352,37.2109536 145.3824,50.1389536 C142.0544,45.3517536 138.752,40.5133536 135.552,35.6237536 C149.1968,17.9597536 171.558868,0.525200036 195.955936,0.474953618 C227.039408,-0.554489138 253.6192,27.2781536 256,56.1293536 Z" id="Fill-3"></path>
            </g>
        </g>
    </g>
</svg>