<?xml version="1.0" encoding="UTF-8"?>
<svg width="256px" height="229px" viewBox="0 0 256 229" version="1.1" xmlns="http://www.w3.org/2000/svg" xmlns:xlink="http://www.w3.org/1999/xlink">
    <!-- Generator: Sketch 47.1 (45422) - http://www.bohemiancoding.com/sketch -->
    <title>BitcoinDark</title>
    <desc>Created with Sketch.</desc>
    <defs></defs>
    <g id="Classic" stroke="none" stroke-width="1" fill="none" fill-rule="evenodd">
        <g transform="translate(-5223.000000, -2501.000000)" id="BitcoinDark">
            <g transform="translate(5223.000000, 2501.000000)">
                <path d="M142.781599,68.7439147 C151.933301,57.2775791 159.512623,16.4699035 159.585097,1.47880704 C277.246374,16.1908933 297.95282,201.316264 159.512623,226.544193 C160.501022,212.992418 154.854992,177.884393 143.137679,159.81443 C208.767907,139.909799 188.810169,68.1215916 142.781599,68.7439147 Z" id="Fill-1" fill="#000000"></path>
                <path d="M3.76776286,160.725134 C42.3490771,164.885622 67.3330506,190.400204 67.3330506,228.797467 L135.097788,228.797467 C135.097788,217.222387 132.460885,163.760932 92.4000131,130.15755 C63.560383,147.501749 47.7210889,157.969661 3.76776286,160.725134 Z M-5.16836936e-05,137.323222 C76.9313327,137.323222 135.096444,76.0575785 135.096444,0.252795281 L67.3330506,0.252795281 C67.473837,37.3786394 37.4074686,67.7291648 0.140838065,67.8700545 L-5.16836936e-05,137.323222 Z" id="Fill-5" fill="#F07530"></path>
            </g>
        </g>
    </g>
</svg>