<?xml version="1.0" encoding="UTF-8"?>
<svg width="256px" height="124px" viewBox="0 0 256 124" version="1.1" xmlns="http://www.w3.org/2000/svg" xmlns:xlink="http://www.w3.org/1999/xlink">
    <!-- Generator: Sketch 47.1 (45422) - http://www.bohemiancoding.com/sketch -->
    <title>Bitquence</title>
    <desc>Created with Sketch.</desc>
    <defs></defs>
    <g id="Classic" stroke="none" stroke-width="1" fill="none" fill-rule="evenodd">
        <g transform="translate(-3388.000000, -5511.000000)" id="Bitquence">
            <g transform="translate(3388.000000, 5511.000000)">
                <path d="M62.4962841,43.7815756 C53.2305545,47.0874368 34.2449949,56.9891459 30.5095949,86.4801233 C29.3355502,82.5607847 28.7048055,78.4066831 28.7048055,74.1052632 C28.7048055,50.3254237 47.9821743,31.0480549 71.7620137,31.0480549 C93.1815228,31.0480549 110.948012,46.6884941 114.263904,67.1717963 C97.5788928,39.799285 71.7620137,40.4757144 62.4962841,43.7815756 Z M38.390045,28.8072203 C10.6376948,49.5282077 3.84683946,94.5713545 44.0990229,124.035096 C18.6487158,115.477326 0,91.1319012 0,64.4393593 C2.23635267e-15,28.8504839 28.8504839,-7.10542736e-15 64.4393593,-7.10542736e-15 C84.9170399,-7.10542736e-15 103.163774,9.55181943 114.967163,24.4430608 C122.39612,33.8154867 127.288673,46.9339893 127.288673,62.2776181 C112.411128,14.0303193 66.1423951,8.08623295 38.390045,28.8072203 Z" id="Combined-Shape" fill="#539532"></path>
                <path d="M54.6498856,71.3615561 L64.2518849,71.3615561 C68.6273234,71.3615561 71.8033376,71.984097 73.7800228,73.2291977 C75.756708,74.4742983 76.7450358,76.4544711 76.7450358,79.1697753 C76.7450358,81.0128057 76.3124225,82.5251934 75.4471831,83.7069838 C74.5819437,84.8887743 73.4318256,85.5992448 71.9967943,85.8384166 L71.9967943,86.0494496 C73.9523761,86.4855865 75.3627656,87.3015725 76.228005,88.4974318 C77.0932444,89.6932912 77.5258577,91.2830569 77.5258577,93.2667766 C77.5258577,96.0805633 76.5093925,98.2752841 74.4764315,99.8510047 C72.4434706,101.426725 69.6824837,102.214574 66.1933881,102.214574 L54.6498856,102.214574 L54.6498856,71.3615561 Z M61.4427918,83.6018307 L64.9660546,83.6018307 C66.6102522,83.6018307 67.8009726,83.2972113 68.5382517,82.6879634 C69.2755308,82.0787155 69.6441648,81.0711283 69.6441648,79.6651716 C69.6441648,78.3529454 69.2429083,77.4117496 68.4403833,76.8415561 C67.6378583,76.2713625 66.3688439,75.98627 64.633302,75.98627 L61.4427918,75.98627 L61.4427918,83.6018307 Z M61.4427918,88.5909611 L61.4427918,96.7923341 L65.4874142,96.7923341 C67.1960421,96.7923341 68.4574711,96.4407477 69.2717391,95.7375643 C70.0860071,95.034381 70.493135,93.9580961 70.493135,92.5086773 C70.493135,89.8968535 68.7578358,88.5909611 65.2871854,88.5909611 L61.4427918,88.5909611 Z M82.0463387,73.6930501 C82.0463387,71.3576259 83.2179517,70.1899314 85.5612128,70.1899314 C87.904474,70.1899314 89.076087,71.3576259 89.076087,73.6930501 C89.076087,74.8059032 88.7831837,75.671878 88.1973684,76.2910005 C87.6115531,76.910123 86.7328434,77.2196796 85.5612128,77.2196796 C83.2179517,77.2196796 82.0463387,76.0441482 82.0463387,73.6930501 Z M89.2128146,102.409611 L82.1830664,102.409611 L82.1830664,79.5629291 L89.2128146,79.5629291 L89.2128146,102.409611 Z M107.093822,97.3409611 L107.093822,102.613272 C98.6533694,102.458394 95.6510297,102.427331 95.6510297,95.0194508 L95.6510297,85.3987414 L92.7276888,85.3987414 L92.7276888,80.187643 L96.0915332,80.187643 L96.0915332,75.4622426 L102.343822,74.2906178 L102.343822,80.187643 L108.025172,80.187643 L108.025172,85.3987414 L102.343822,85.3987414 L102.343822,95.0194508 C102.343822,97.3432963 104.429719,97.5049242 107.093822,97.3409611 Z M120.91952,96.978833 C122.332087,96.978833 123.367142,96.5730399 124.024717,95.7614416 C124.682291,94.9498434 125.041516,93.5310933 125.102403,91.5051487 L125.102403,90.8278032 C125.102403,88.6309959 124.764488,87.0566409 124.088647,86.1046911 C123.412807,85.1527412 122.325999,84.6767735 120.828191,84.6767735 C118.21007,84.6767735 116.90103,86.7393005 116.90103,90.8644165 C116.90103,92.91477 117.226768,94.4464099 117.878253,95.4593822 C118.529739,96.4723544 119.543485,96.978833 120.91952,96.978833 Z M118.537757,102.331808 C115.894724,102.331808 113.825713,101.313988 112.330664,99.2783181 C110.835614,97.2426481 110.088101,94.4094384 110.088101,90.7786041 C110.088101,87.1210725 110.8523,84.264503 112.380721,82.2088101 C113.909142,80.1531171 116.001512,79.125286 118.657895,79.125286 C120.072852,79.125286 121.307584,79.3922551 122.362128,79.9262014 C123.416672,80.4601476 124.669904,81.2877518 125.470824,82.4090389 L125.891304,82.4090389 L125.891304,79.5457666 L132.769451,79.5457666 L132.769451,111.196796 L125.891304,111.196796 L125.891304,102.391876 C125.891304,101.577608 125.717772,100.456338 125.891304,99.028032 L125.470824,99.028032 C124.81674,100.109273 123.363278,100.930203 122.282037,101.490847 C121.200796,102.05149 119.952715,102.331808 118.537757,102.331808 Z M153.258009,101.948513 L153.258009,99.0852403 C152.603925,100.126435 151.676207,100.93068 150.474828,101.497998 C149.273449,102.065316 147.905233,102.34897 146.370137,102.34897 C143.740452,102.34897 141.758207,101.644839 140.423341,100.236556 C139.088475,98.8282729 138.421053,96.8026448 138.421053,94.159611 L138.421053,79.5629291 L144.528032,79.5629291 L144.528032,92.0520595 C144.528032,93.6672468 144.815024,94.8786192 145.389016,95.6862128 C145.963008,96.4938065 146.877377,96.8975973 148.132151,96.8975973 C149.840779,96.8975973 151.392854,95.8913936 151.836384,95.1856407 C152.279915,94.4798878 152.391876,92.1521871 152.391876,89.5091533 L152.391876,79.5629291 L159.084668,79.5629291 L159.084668,101.948513 L153.258009,101.948513 Z M174.498381,84.0560641 C173.291976,84.0560641 172.346765,84.4385013 171.662721,85.2033872 C170.978676,85.9682731 170.586912,87.0533998 170.487414,88.4587998 L178.472037,88.4587998 C178.447162,87.0533998 178.080271,85.9682731 177.371353,85.2033872 C176.662434,84.4385013 175.704786,84.0560641 174.498381,84.0560641 Z M166.654462,99.7860412 C164.625467,97.7970915 163.610984,94.9805674 163.610984,91.3363844 C163.610984,87.5854122 164.548713,84.6854603 166.424199,82.6364416 C168.299685,80.587423 170.892623,79.5629291 174.203089,79.5629291 C177.366721,79.5629291 179.829511,80.4639498 181.591533,82.2660183 C183.353556,84.0680868 184.234554,86.5575737 184.234554,89.7345538 L184.234554,93.2837529 L169.798055,93.2837529 C170.022923,99.1303344 180.218402,97.7552697 182.973112,96.4622426 L182.973112,101.187643 C181.90522,101.721589 170.834218,103.883302 166.654462,99.7860412 Z M210.050343,102.534325 L202.914188,102.534325 L202.914188,90.6310069 C202.914188,89.0158195 202.893065,85.1996568 199.496854,85.1996568 C196.100642,85.1996568 196.079519,87.9879731 196.079519,90.6310069 L196.079519,102.534325 L189.386728,102.534325 L189.386728,80.1487414 L195.45881,80.1487414 L195.45881,83.5978261 C196.010006,81.2984363 198.224156,80.1487414 202.101259,80.1487414 C207.916913,80.1487414 210.050343,84.6954482 210.050343,87.3518307 L210.050343,102.534325 Z M225.028604,102.183638 C218.060606,102.183638 214.576659,98.359306 214.576659,90.7105263 C214.576659,86.9061595 215.524399,83.9995333 217.419908,81.9905606 C219.315418,79.981588 222.031828,78.9771167 225.569222,78.9771167 C228.158861,78.9771167 230.481492,79.484358 232.537185,80.4988558 L230.735126,85.2242563 C229.774023,84.8371453 220.803776,82.520688 220.803776,90.6704805 C220.803776,98.8202731 230.835235,95.9631994 231.836384,95.2957666 L231.836384,100.521739 C230.848584,101.149126 229.850787,101.582951 228.842963,101.823227 C227.83514,102.063502 226.5637,102.183638 225.028604,102.183638 Z M245.834766,84.0154462 C244.62836,84.0154462 243.683149,84.3978834 242.999105,85.1627693 C242.315061,85.9276552 241.923296,87.0127819 241.823799,88.418182 L249.808421,88.418182 C249.783547,87.0127819 249.416656,85.9276552 248.707737,85.1627693 C247.998819,84.3978834 247.041171,84.0154462 245.834766,84.0154462 Z M238.12357,99.7860412 C236.094574,97.7970915 235.080092,94.9805674 235.080092,91.3363844 C235.080092,87.5854122 236.017821,84.6854603 237.893307,82.6364416 C239.768793,80.587423 242.36173,79.5629291 245.672197,79.5629291 C248.835828,79.5629291 251.298618,80.4639498 253.060641,82.2660183 C254.822663,84.0680868 255.703661,86.5575737 255.703661,89.7345538 L255.703661,93.2837529 L241.267162,93.2837529 C241.492031,99.1303344 251.68751,97.7552697 254.44222,96.4622426 L254.44222,101.187643 C253.374327,101.721589 242.303326,103.883302 238.12357,99.7860412 Z" fill="#000000"></path>
            </g>
        </g>
    </g>
</svg>