<?xml version="1.0" encoding="UTF-8"?>
<svg width="159px" height="256px" viewBox="0 0 159 256" version="1.1" xmlns="http://www.w3.org/2000/svg" xmlns:xlink="http://www.w3.org/1999/xlink">
    <!-- Generator: Sketch 47.1 (45422) - http://www.bohemiancoding.com/sketch -->
    <title>BitShares</title>
    <desc>Created with Sketch.</desc>
    <defs></defs>
    <g id="Classic" stroke="none" stroke-width="1" fill="none" fill-rule="evenodd">
        <g transform="translate(-4010.000000, -2488.000000)" id="BitShares" fill="#56B9E8">
            <g transform="translate(4010.000000, 2488.000000)">
                <path d="M0.099771493,182.068197 L51.0750124,182.068197 C51.6313786,185.871981 53.1193019,189.48162 55.4092246,192.586639 L19.4160669,228.980925 C8.05659164,215.848859 1.27709017,199.379109 0.099771493,182.068197 Z M1.53713847e-14,105.025068 L55.5585627,160.568063 C53.2622921,163.651154 51.7620123,167.255675 51.1856521,171.070475 L7.10542736e-15,171.354116 L1.53713847e-14,105.025068 Z M73.9318025,65.553322 L73.9318025,148.535521 C70.1280193,149.091887 66.51838,150.57981 63.4133608,152.869733 L0.120374219,89.0575413 L0.120374219,4.51964647e-15 L73.9318025,65.553322 Z M131.476876,116.974133 L95.4319371,153.019071 C92.3488458,150.722801 88.7443247,149.222521 84.9295248,148.646161 L84.6458844,97.4605085 C101.964019,98.7139194 118.403722,105.56596 131.476876,116.974133 Z M158.43972,171.392311 L107.464479,171.392311 C106.908113,167.588528 105.42019,163.978888 103.130267,160.873869 L139.123425,124.479584 C150.4829,137.61165 157.262401,154.081399 158.43972,171.392311 Z M139.025867,228.937384 L102.980929,192.892446 C105.277199,189.809354 106.777479,186.204833 107.353839,182.390033 L158.539492,182.106393 C157.286081,199.424528 150.43404,215.864231 139.025867,228.937384 Z M84.607689,255.900229 L84.607689,204.924988 C88.4114723,204.368621 92.0211116,202.880698 95.1261307,200.590775 L131.520416,236.583933 C118.38835,247.943408 101.918601,254.72291 84.607689,255.900229 Z M27.062616,236.486376 L63.1075545,200.441437 C66.1906457,202.737708 69.7951668,204.237988 73.6099668,204.814348 L73.8936072,256 C56.5754722,254.746589 40.1357691,247.894549 27.062616,236.486376 Z" id="Logo"></path>
            </g>
        </g>
    </g>
</svg>