<?xml version="1.0" encoding="UTF-8"?>
<svg width="253px" height="256px" viewBox="0 0 253 256" version="1.1" xmlns="http://www.w3.org/2000/svg" xmlns:xlink="http://www.w3.org/1999/xlink">
    <!-- Generator: Sketch 47.1 (45422) - http://www.bohemiancoding.com/sketch -->
    <title>Civic</title>
    <desc>Created with Sketch.</desc>
    <defs></defs>
    <g id="Classic" stroke="none" stroke-width="1" fill="none" fill-rule="evenodd">
        <g transform="translate(-5829.000000, -3963.000000)" id="Civic" fill="#3AB03E">
            <g transform="translate(5829.000000, 3963.000000)">
                <path d="M31.90016,128 C31.90016,75.06176 74.8326912,32.00768 127.596851,32.00768 C170.658509,32.00768 205.997467,58.721109 219.134771,101.851232 L252.11648,101.851232 C238.214389,39.3394208 188.47232,0 127.596851,0 C57.1276288,0 0,57.3069312 0,128 C0,198.693069 57.1276288,256 127.596851,256 C188.47232,256 237.98621,217.686128 252.117709,154.147539 L219.136,154.147539 C206.027551,197.160316 170.658509,224 127.596851,224 C74.82624,224 31.90016,180.93824 31.90016,128 Z M157.495091,111.000269 C157.495091,94.43584 144.1024,81.0112 127.59552,81.0112 C111.08864,81.0112 97.6897024,94.4346112 97.6897024,110.99904 C97.6764928,122.455962 104.191283,132.919603 114.47808,137.96352 L114.47808,175.0016 L140.71808,175.0016 L140.71808,137.964851 C150.998016,132.913664 157.506048,122.453094 157.495091,111.000269 Z" id="Logo"></path>
            </g>
        </g>
    </g>
</svg>