<?xml version="1.0" encoding="UTF-8"?>
<svg width="263px" height="264px" viewBox="0 0 263 264" version="1.1" xmlns="http://www.w3.org/2000/svg" xmlns:xlink="http://www.w3.org/1999/xlink">
    <!-- Generator: Sketch 47.1 (45422) - http://www.bohemiancoding.com/sketch -->
    <title>Cryptonex</title>
    <desc>Created with Sketch.</desc>
    <defs>
        <linearGradient x1="-1.11022302e-14%" y1="50%" x2="100%" y2="50%" id="linearGradient-1">
            <stop stop-color="#2F3F87" offset="0%"></stop>
            <stop stop-color="#5B8BC6" offset="100%"></stop>
        </linearGradient>
        <path d="M240.395295,128.836796 L192.734828,128.836796 C192.734828,160.043653 166.057452,191.462015 133.919426,192.057046 L132.738704,176.782616 C122.386035,192.698654 106.076387,202.18755 83.8097606,205.249303 C93.4665234,231.601119 128.041424,252.990196 140.749552,255.853978 L139.376764,240.671557 C198.760062,235.385482 242.182363,180.917343 240.395295,128.836796 Z" id="path-2"></path>
        <filter x="-4.5%" y="-3.9%" width="108.9%" height="111.0%" filterUnits="objectBoundingBox" id="filter-3">
            <feOffset dx="0" dy="2" in="SourceAlpha" result="shadowOffsetOuter1"></feOffset>
            <feGaussianBlur stdDeviation="2" in="shadowOffsetOuter1" result="shadowBlurOuter1"></feGaussianBlur>
            <feColorMatrix values="0 0 0 0 0   0 0 0 0 0   0 0 0 0 0  0 0 0 0.5 0" type="matrix" in="shadowBlurOuter1"></feColorMatrix>
        </filter>
        <filter x="-14.6%" y="-11.5%" width="129.1%" height="123.0%" filterUnits="objectBoundingBox" id="filter-4">
            <feGaussianBlur stdDeviation="2" in="SourceGraphic"></feGaussianBlur>
        </filter>
        <linearGradient x1="50%" y1="-2.48949813e-15%" x2="50%" y2="100%" id="linearGradient-5">
            <stop stop-color="#2F3F87" offset="0%"></stop>
            <stop stop-color="#5B8BC6" offset="100%"></stop>
        </linearGradient>
        <path d="M128.707153,15.2678881 L128.707153,62.9283555 C159.91401,62.9283555 191.332372,89.6057316 191.927404,121.743757 L176.652973,122.924479 C192.569011,133.277148 202.057907,149.586796 205.11966,171.853423 C231.471476,162.19666 252.860553,127.621759 255.724335,114.913631 L240.541914,116.286419 C235.255839,56.9031217 180.7877,13.4808205 128.707153,15.2678881 Z" id="path-6"></path>
        <filter x="-5.5%" y="-3.2%" width="111.0%" height="109.0%" filterUnits="objectBoundingBox" id="filter-7">
            <feOffset dx="0" dy="2" in="SourceAlpha" result="shadowOffsetOuter1"></feOffset>
            <feGaussianBlur stdDeviation="2" in="shadowOffsetOuter1" result="shadowBlurOuter1"></feGaussianBlur>
            <feColorMatrix values="0 0 0 0 0   0 0 0 0 0   0 0 0 0 0  0 0 0 0.5 0" type="matrix" in="shadowBlurOuter1"></feColorMatrix>
        </filter>
        <filter x="-14.6%" y="-11.5%" width="129.1%" height="123.0%" filterUnits="objectBoundingBox" id="filter-8">
            <feGaussianBlur stdDeviation="2" in="SourceGraphic"></feGaussianBlur>
        </filter>
        <path d="M14.9370002,127.017182 L62.5974676,127.017182 C62.5974676,95.8103248 89.2748437,64.3919629 121.412869,63.7969313 L122.593591,79.0713615 C132.94626,63.1553235 149.255908,53.666428 171.522535,50.6046751 C161.865772,24.2528586 127.290872,2.86378175 114.582743,4.54747351e-13 L115.955531,15.1824208 C56.5722338,20.4684955 13.1499326,74.9366347 14.9370002,127.017182 Z" id="path-9"></path>
        <filter x="-4.5%" y="-3.9%" width="108.9%" height="111.0%" filterUnits="objectBoundingBox" id="filter-10">
            <feOffset dx="0" dy="2" in="SourceAlpha" result="shadowOffsetOuter1"></feOffset>
            <feGaussianBlur stdDeviation="2" in="shadowOffsetOuter1" result="shadowBlurOuter1"></feGaussianBlur>
            <feColorMatrix values="0 0 0 0 0   0 0 0 0 0   0 0 0 0 0  0 0 0 0.5 0" type="matrix" in="shadowBlurOuter1"></feColorMatrix>
        </filter>
        <filter x="-14.6%" y="-11.5%" width="129.1%" height="123.0%" filterUnits="objectBoundingBox" id="filter-11">
            <feGaussianBlur stdDeviation="2" in="SourceGraphic"></feGaussianBlur>
        </filter>
        <linearGradient x1="50%" y1="100%" x2="50%" y2="-1.11022302e-14%" id="linearGradient-12">
            <stop stop-color="#2F3F87" offset="0%"></stop>
            <stop stop-color="#5B8BC6" offset="100%"></stop>
        </linearGradient>
        <path d="M127.585255,250.034432 L127.585255,202.373965 C96.378398,202.373965 64.9600361,175.696589 64.3650045,143.558563 L79.6394348,142.377842 C63.7233967,132.025172 54.2345012,115.715524 51.1727483,93.4488978 C24.8209318,103.105661 3.43185497,137.680561 0.568073211,150.38869 L15.750494,149.015901 C21.0365688,208.399199 75.5047079,251.8215 127.585255,250.034432 Z" id="path-13"></path>
        <filter x="-5.5%" y="-3.2%" width="111.0%" height="109.0%" filterUnits="objectBoundingBox" id="filter-14">
            <feOffset dx="0" dy="2" in="SourceAlpha" result="shadowOffsetOuter1"></feOffset>
            <feGaussianBlur stdDeviation="2" in="shadowOffsetOuter1" result="shadowBlurOuter1"></feGaussianBlur>
            <feColorMatrix values="0 0 0 0 0   0 0 0 0 0   0 0 0 0 0  0 0 0 0.5 0" type="matrix" in="shadowBlurOuter1"></feColorMatrix>
        </filter>
        <filter x="-14.6%" y="-11.5%" width="129.1%" height="123.0%" filterUnits="objectBoundingBox" id="filter-15">
            <feGaussianBlur stdDeviation="2" in="SourceGraphic"></feGaussianBlur>
        </filter>
        <linearGradient x1="-1.11022302e-14%" y1="50%" x2="90.5877924%" y2="50%" id="linearGradient-16">
            <stop stop-color="#5B8BC6" offset="0%"></stop>
            <stop stop-color="#3D5B9E" offset="100%"></stop>
        </linearGradient>
    </defs>
    <g id="Classic" stroke="none" stroke-width="1" fill="none" fill-rule="evenodd">
        <g transform="translate(-3385.000000, -6146.000000)" id="Cryptonex">
            <g transform="translate(3388.000000, 6148.000000)">
                <g id="Path">
                    <use fill="black" fill-opacity="1" filter="url(#filter-3)" xlink:href="#path-2"></use>
                    <use fill="url(#linearGradient-1)" fill-rule="evenodd" xlink:href="#path-2"></use>
                </g>
                <path d="M224.468556,131.826344 L223.614439,121.756098 C216.12547,132.249349 204.32731,138.505262 188.219959,140.523839 C195.20552,157.897272 220.216495,171.998832 229.409369,173.886888 L228.416314,163.877302 L224.468556,131.826344 Z" id="Path" fill-opacity="0.5" fill="#000000" filter="url(#filter-4)" transform="translate(208.814664, 147.821493) rotate(-90.000000) translate(-208.814664, -147.821493) "></path>
                <g id="Path-45">
                    <use fill="black" fill-opacity="1" filter="url(#filter-7)" xlink:href="#path-6"></use>
                    <use fill="url(#linearGradient-5)" fill-rule="evenodd" xlink:href="#path-6"></use>
                </g>
                <path d="M162.423749,31.4035801 L161.569632,21.3333333 C154.080663,31.8265844 142.282503,38.0824982 126.175153,40.1010748 C133.160713,57.4745082 158.171689,71.5760674 167.364562,73.464124 L166.371507,63.4545379 L162.423749,31.4035801 Z" id="Path" fill-opacity="0.5" fill="#000000" filter="url(#filter-8)" transform="translate(146.769857, 47.398729) rotate(-180.000000) translate(-146.769857, -47.398729) "></path>
                <g id="Path">
                    <use fill="black" fill-opacity="1" filter="url(#filter-10)" xlink:href="#path-9"></use>
                    <use fill="url(#linearGradient-1)" fill-rule="evenodd" xlink:href="#path-9"></use>
                </g>
                <path d="M63.3606125,103.208458 L62.5064958,93.1382114 C55.0175269,103.631462 43.219367,109.887376 27.1120163,111.905953 C34.0975767,129.279386 59.1085521,143.380945 68.3014257,145.269002 L67.3083708,135.259416 L63.3606125,103.208458 Z" id="Path" fill-opacity="0.5" fill="#000000" filter="url(#filter-11)" transform="translate(47.706721, 119.203607) rotate(-270.000000) translate(-47.706721, -119.203607) "></path>
                <g id="Path">
                    <use fill="black" fill-opacity="1" filter="url(#filter-14)" xlink:href="#path-13"></use>
                    <use fill="url(#linearGradient-12)" fill-rule="evenodd" xlink:href="#path-13"></use>
                </g>
                <path d="M124.884034,193.224718 L124.029917,183.154472 C116.540948,193.647723 104.742789,199.903636 88.6354379,201.922213 C95.6209983,219.295646 120.631974,233.397206 129.824847,235.285262 L128.831792,225.275676 L124.884034,193.224718 Z" id="Path" fill-opacity="0.5" fill="#000000" filter="url(#filter-15)"></path>
                <path d="M134.052639,192.184999 L132.871917,176.910569 C122.519248,192.826607 106.2096,202.315503 83.9429735,205.377256 C93.5997363,231.729072 128.174637,253.118149 140.882765,255.981931 L139.509977,240.79951 L134.052639,192.184999 Z" id="Path" fill="url(#linearGradient-16)"></path>
            </g>
        </g>
    </g>
</svg>