<?xml version="1.0" encoding="UTF-8"?>
<svg width="256px" height="256px" viewBox="0 0 256 256" version="1.1" xmlns="http://www.w3.org/2000/svg" xmlns:xlink="http://www.w3.org/1999/xlink">
    <!-- Generator: Sketch 47.1 (45422) - http://www.bohemiancoding.com/sketch -->
    <title>DigiByte</title>
    <desc>Created with Sketch.</desc>
    <defs></defs>
    <g id="Classic" stroke="none" stroke-width="1" fill="none" fill-rule="evenodd">
        <g transform="translate(-4617.000000, -4670.000000)" id="DigiByte">
            <g transform="translate(4617.000000, 4670.000000)">
                <circle id="Oval-18" fill="#116EC9" cx="128" cy="128" r="128"></circle>
                <circle id="Oval-18" fill="#022852" cx="128" cy="128" r="103.836735"></circle>
                <path d="M174.541064,71.3640234 L159.045695,68.6317718 L152.253521,79.9513055 L147.068865,79.0371108 L153.276614,67.6145271 L137.633475,64.8562196 L131.69307,74.691154 C102.043902,69.4355787 87.2169554,66.821188 87.2122309,66.8479819 L69.2433411,88.3117438 C69.2433411,88.3117438 96.5232616,92.8459229 151.083102,101.914281 C182.604818,107.47241 141.636275,167.365497 99.7805156,156.79412 L128.536219,107.208324 L98.3050871,101.87776 C69.0972998,148.601108 54.4934061,171.962782 54.4934061,171.962782 C54.4934061,171.962782 59.7553019,172.890596 70.2790934,174.746224 L66.8423484,182.371326 L83.1174244,185.241061 L87.3369737,177.753989 L92.0100228,178.577974 L88.0615686,186.112847 L104.145143,188.948815 L110.430817,177.278506 C166.890256,187.962494 243.488933,96.0036994 167.582829,83.0763359 L174.541064,71.3640234 Z" id="Fill-6" fill="#FFFFFF" transform="translate(126.938426, 126.902518) rotate(-10.000000) translate(-126.938426, -126.902518) "></path>
            </g>
        </g>
    </g>
</svg>