<?xml version="1.0" encoding="UTF-8"?>
<svg width="256px" height="256px" viewBox="0 0 256 256" version="1.1" xmlns="http://www.w3.org/2000/svg" xmlns:xlink="http://www.w3.org/1999/xlink">
    <!-- Generator: Sketch 47.1 (45422) - http://www.bohemiancoding.com/sketch -->
    <title>GXShares</title>
    <desc>Created with Sketch.</desc>
    <defs></defs>
    <g id="Classic" stroke="none" stroke-width="1" fill="none" fill-rule="evenodd">
        <g transform="translate(-2176.000000, -4671.000000)" id="GXShares" fill="#69A0FC">
            <g transform="translate(2176.000000, 4670.000000)">
                <path d="M102.626028,129.143401 C111.172639,137.418652 119.683308,145.731075 128.007301,154.231401 C134.399519,147.932675 140.753439,141.559401 147.107359,135.183875 C153.53685,141.595343 159.927839,148.043983 166.394501,154.417052 C160.114719,160.828623 153.796639,167.164623 147.40565,173.501852 C164.574239,190.760143 181.40757,208.353692 199.134239,225.052675 C208.127519,234.524675 225.59317,228.779932 228.190239,216.293583 C230.97685,207.461583 224.622828,199.818652 218.640108,194.264783 C190.434949,166.196943 162.291538,138.067254 134.210079,109.875612 C140.63916,103.464553 147.043359,97.028713 153.422879,90.5680922 C159.81397,96.9424922 166.20629,103.315663 172.750879,109.577423 C189.584108,92.133481 207.42229,75.6574234 223.995628,57.9524634 C232.35669,49.8270234 229.011999,34.2839322 218.347039,29.8846234 C211.171359,26.1917722 202.43797,28.8004122 197.273119,34.6155034 C165.465119,65.8487322 134.286879,97.7591322 102.626028,129.143401 Z M83.4119987,109.610601 C91.7362995,101.186563 100.11006,92.812393 108.533279,84.4880922 C91.8471987,67.677801 75.2366899,50.7550746 58.3278899,34.1687322 C50.6364143,25.868954 40.0462521,25.6776535 32.6513587,33.1687322 C25.2564653,40.6598108 23.8382387,49.637481 31.6424499,57.540201 C48.5921075,75.2068634 66.1742899,92.241001 83.4119987,109.610601 Z M75.7934387,12.9963034 C93.3337395,30.1422618 110.68798,47.4500122 127.856159,64.9194522 C146.139679,47.5498522 163.232901,29.0244634 181.590559,11.7291034 C199.056108,-4.03793664 228.748319,-2.13718784 244.243999,15.5307034 C260.149279,32.1924122 259.888159,61.2663322 243.388959,77.4430746 C226.405816,94.7383322 209.20149,111.772675 192.069868,128.918223 C209.57269,146.958543 227.819039,164.291075 245.173279,182.550223 C260.743199,199.621532 259.253279,228.695452 242.386668,244.388252 C225.776159,261.156252 196.009708,261.198543 179.43637,244.351183 C162.193439,227.428252 145.323039,210.095823 128.191519,193.098652 C109.908101,210.692201 92.4795187,229.142223 74.0103475,246.550223 C56.3182899,262.246812 26.4814899,259.900623 11.2455987,241.894812 C-4.09771008,225.272732 -3.73040128,196.943875 12.2862899,180.838812 C27.2622899,165.407132 42.5723187,150.273743 57.9195187,135.177423 C64.3489075,141.588892 70.7771699,148.037532 77.2065587,154.447875 C62.1563187,169.990863 46.3252787,184.863132 31.4990899,200.630275 C25.0808126,207.211203 25.2915024,216.123173 31.9081165,223.850016 C38.5247307,231.576859 49.9260651,231.912852 55.1571528,226.876497 C69.8360904,211.929988 93.8542387,188.477852 108.533279,173.531343 C76.5332787,141.252201 44.0212787,109.419932 12.1748787,76.991081 C-4.43573248,60.2551322 -3.91595008,30.3991834 13.0708787,14.1431834 C29.3102899,-2.84118784 58.9972787,-3.51569664 75.7934387,12.9963034 Z" id="Logo"></path>
            </g>
        </g>
    </g>
</svg>