<?xml version="1.0" encoding="UTF-8"?>
<svg width="256px" height="199px" viewBox="0 0 256 199" version="1.1" xmlns="http://www.w3.org/2000/svg" xmlns:xlink="http://www.w3.org/1999/xlink">
    <!-- Generator: Sketch 47.1 (45422) - http://www.bohemiancoding.com/sketch -->
    <title>Hshare</title>
    <desc>Created with Sketch.</desc>
    <defs></defs>
    <g id="Classic" stroke="none" stroke-width="1" fill="none" fill-rule="evenodd">
        <g transform="translate(-300.000000, -1834.000000)" id="Hshare" fill="#56428E">
            <g transform="translate(300.000000, 1834.000000)">
                <path d="M109.977123,139.669497 L154.334226,139.669497 L154.334226,113.108591 L109.977123,113.108591 L109.977123,139.669497 Z M67.6869802,0 L118.949141,0 L118.949141,7.42130635 C118.949141,7.42130635 109.236474,7.42151356 109.236474,11.1370878 L109.236474,32.0608142 L155.037475,32.0608142 L155.037475,11.1369842 C155.037475,7.42151356 145.440117,7.42120275 145.440117,7.42120275 L145.440117,0 L197.053177,0 L197.053177,7.42161716 C197.053177,7.42161716 188.041169,7.42151356 188.041169,11.1366734 L188.041169,22.972348 L188.002214,139.669497 L203.295184,139.708348 L211.378609,122.005912 L211.378609,114.315448 L255.917119,114.315448 L255.917119,122.005912 L250.729052,122.005912 C245.696078,122.005912 226.193871,166.854501 226.193871,166.854501 L109.117229,166.854501 L109.117229,187.779263 C109.117229,191.409263 126.24395,191.404393 126.24395,191.404393 L126.24395,198.915419 L60.3480372,198.915419 L60.3480372,191.404186 C60.3480372,191.404186 76.4218535,191.409263 76.4218535,187.778642 L76.4218535,175.51302 C76.4218535,175.51302 76.4218535,100.272227 76.5384055,62.6388798 L109.97588,62.6388798 L109.97588,85.806828 L154.332983,85.806828 L154.332983,59.2459215 L61.7169276,59.2459215 C54.0330943,72.6632845 46.36045,86.0671793 38.6990983,99.4577094 C46.3458422,112.874969 54.0296754,126.278967 61.7504945,139.669497 L73.1466904,139.669497 L73.1466904,166.735463 L38.3105917,166.735463 C25.5922299,144.272006 12.4063132,122.079158 0,99.4577094 L0,99.4188588 C12.4451639,76.8362606 38.3105917,32.0608142 38.3105917,32.0608142 L77.2843383,32.0608142 L77.2843383,11.170862 C77.2211412,7.42151356 67.6869802,7.40006799 67.6869802,7.40006799 L67.6869802,0 L67.6869802,0 Z" id="Fill-1"></path>
                <path d="M155.542492,170.130918 L186.364022,170.130918 L186.364022,187.778341 C186.364022,191.409273 204.310544,191.405233 204.310544,191.405233 L204.310544,198.915429 L137.948423,198.915429 L137.948423,191.404404 C137.948423,191.404404 155.542492,191.409273 155.542492,187.778341 L155.542492,170.130918 L155.542492,170.130918 Z M191.395131,32.1773766 L226.110845,32.1773766 C226.110845,32.1773766 247.811895,76.8071589 251.80419,76.8071589 L255.917181,76.8071589 L255.917181,84.1596737 L211.378568,84.1596737 L211.378568,76.8071589 L203.295246,59.2070812 L191.390055,59.2459318 L191.395131,32.1773766 Z" id="Fill-3"></path>
            </g>
        </g>
    </g>
</svg>