<?xml version="1.0" encoding="UTF-8"?>
<svg width="256px" height="40px" viewBox="0 0 256 40" version="1.1" xmlns="http://www.w3.org/2000/svg" xmlns:xlink="http://www.w3.org/1999/xlink">
    <!-- Generator: Sketch 47.1 (45422) - http://www.bohemiancoding.com/sketch -->
    <title>Iconomi</title>
    <desc>Created with Sketch.</desc>
    <defs></defs>
    <g id="Classic" stroke="none" stroke-width="1" fill="none" fill-rule="evenodd">
        <g transform="translate(-2782.000000, -4071.000000)" id="Iconomi">
            <g transform="translate(2782.000000, 4071.000000)">
                <path d="M31.0521623,0.117820324 L37.1927269,0.117820324 L37.1927269,39.4209622 L31.0521623,39.4209622 L31.0521623,0.117820324 Z M249.718829,0.117820324 L255.859394,0.117820324 L255.859394,39.4209622 L249.718829,39.4209622 L249.718829,0.117820324 Z M75.4731955,5.23455161 L72.6523592,9.11634689 C60.3773057,-0.21363463 47.0252897,7.64118949 47.0252897,19.3546883 C47.0252897,31.068187 59.3549934,40.5700325 73.4845777,29.7430493 L76.2865253,33.3879724 C67.8864077,43.7254394 41.5630474,41.7693992 41.4027194,19.3546883 C41.4027194,-0.521987191 65.3831855,-4.64737357 75.4731955,5.23455161 Z M121.752718,0.117820324 L127.217898,0.117820324 L147.515201,30.622975 L147.515201,0.117820324 L152.95365,0.117820324 L152.95365,39.4209622 L147.515201,39.4209622 L127.217898,9.32351497 L127.217898,39.4209622 L121.752718,39.4209622 L121.752718,0.117820324 Z M207.632741,0.117820324 L213.544755,0.117820324 L224.910727,26.6247018 L236.429982,0.117820324 L242.261719,0.117820324 L245.499814,39.4209622 L240.061421,39.4209622 C238.578351,20.7107341 237.836816,10.6480946 237.836816,9.2330436 L227.432648,32.3367057 L222.388806,32.3367057 L212.202193,8.74766814 L210.050274,39.4209622 L204.394645,39.4209622 L207.632741,0.117820324 Z" id="ICONOMI" fill="#51708A"></path>
                <path d="M20.7649429,19.9273441 L26.9055075,19.9273441 L26.9055075,39.4209622 L20.7649429,39.4209622 L20.7649429,19.9273441 Z M10.4777235,10.0225822 L16.6182881,10.0225822 L16.6182881,39.4209622 L10.4777235,39.4209622 L10.4777235,10.0225822 Z M-2.27373675e-13,29.6416298 L6.14056461,29.6416298 L6.14056461,39.4209622 L-2.27373675e-13,39.4209622 L-2.27373675e-13,29.6416298 Z" id="Combined-Shape" fill="#859AAE"></path>
                <path d="M97.047619,39.4285714 C85.8441284,39.4285714 76.3809524,30.9177764 76.3809524,19.7142857 C76.3809524,8.51079508 85.8441284,0.19047619 97.047619,0.19047619 C108.25111,0.19047619 117.714286,8.51079508 117.714286,19.7142857 C117.714286,30.9177764 108.25111,39.4285714 97.047619,39.4285714 Z M97.1428571,34.8571429 C105.816527,34.8571429 112,28.2881311 112,19.6407767 C112,10.9934223 105.816527,4.57142857 97.1428571,4.57142857 C88.469187,4.57142857 82.0952381,10.9934223 82.0952381,19.6407767 C82.0952381,28.2881311 88.469187,34.8571429 97.1428571,34.8571429 Z" id="Combined-Shape" fill="#51708A"></path>
                <path d="M179.52381,39.4285714 C168.320319,39.4285714 158.857143,30.9177764 158.857143,19.7142857 C158.857143,8.51079508 168.320319,0.19047619 179.52381,0.19047619 C190.7273,0.19047619 200.190476,8.51079508 200.190476,19.7142857 C200.190476,30.9177764 190.7273,39.4285714 179.52381,39.4285714 Z M179.619048,34.8571429 C188.292718,34.8571429 194.47619,28.2881311 194.47619,19.6407767 C194.47619,10.9934223 188.292718,4.57142857 179.619048,4.57142857 C170.945377,4.57142857 164.571429,10.9934223 164.571429,19.6407767 C164.571429,28.2881311 170.945377,34.8571429 179.619048,34.8571429 Z" id="Combined-Shape" fill="#51708A"></path>
            </g>
        </g>
    </g>
</svg>