<?xml version="1.0" encoding="UTF-8"?>
<svg width="224px" height="256px" viewBox="0 0 224 256" version="1.1" xmlns="http://www.w3.org/2000/svg" xmlns:xlink="http://www.w3.org/1999/xlink">
    <!-- Generator: Sketch 47.1 (45422) - http://www.bohemiancoding.com/sketch -->
    <title>iExec RLC</title>
    <desc>Created with Sketch.</desc>
    <defs></defs>
    <g id="Classic" stroke="none" stroke-width="1" fill="none" fill-rule="evenodd">
        <g transform="translate(-4010.000000, -6831.000000)" id="iExec-RLC" fill="#FEE334">
            <g transform="translate(4010.000000, 6831.000000)">
                <path d="M147.750819,170.199998 C147.906641,171.562473 147.986711,172.947966 147.986711,174.352159 C147.986711,194.315143 131.803515,210.498339 111.840532,210.498339 C103.27743,210.498339 95.4097992,207.520676 89.2165829,202.544294 C83.2601588,198.487822 70.1787749,204.846583 71.9473647,214.591016 C72.0261935,215.025341 72.0580793,215.367295 72.0475635,215.624544 C72.2092385,217.011846 72.2923588,218.423126 72.2923588,219.853821 C72.2923588,239.816804 56.109163,256 36.1461794,256 C16.1831958,256 0,239.816804 0,219.853821 C0,199.890837 16.1831958,183.707641 36.1461794,183.707641 C44.5675756,183.707641 52.3163286,186.587569 58.4612942,191.41628 C65.2921793,195.588831 76.3344354,187.929091 76.1352983,180.014615 C75.8450494,178.169758 75.6943522,176.278557 75.6943522,174.352159 C75.6943522,154.389176 91.8775479,138.20598 111.840532,138.20598 C120.355765,138.20598 128.183281,141.150446 134.360462,146.076758 C141.19881,149.986725 152.019926,142.412009 151.840074,134.578813 C151.54301,132.713114 151.388704,130.799826 151.388704,128.850498 C151.388704,108.887515 167.5719,92.7043189 187.534884,92.7043189 C207.497867,92.7043189 223.681063,108.887515 223.681063,128.850498 C223.681063,148.813482 207.497867,164.996678 187.534884,164.996678 C179.266242,164.996678 171.646063,162.22028 165.555734,157.548872 C165.464538,157.491663 165.364311,157.420321 165.254731,157.334262 C159.470395,152.791495 145.849573,159.20574 147.652049,169.136526 C147.73398,169.587924 147.765203,169.939547 147.750819,170.199998 Z M58.4612942,99.5624594 C65.2921793,103.735011 76.3344354,96.0752706 76.1352983,88.1607946 C75.8450494,86.3159369 75.6943522,84.4247365 75.6943522,82.4983389 C75.6943522,62.5353552 91.8775479,46.3521595 111.840532,46.3521595 C131.803515,46.3521595 147.986711,62.5353552 147.986711,82.4983389 C147.986711,102.461323 131.803515,118.644518 111.840532,118.644518 C103.27743,118.644518 95.4097992,115.666855 89.2165829,110.690473 C83.2601588,106.634001 70.1787749,112.992763 71.9473647,122.737196 C72.0261935,123.17152 72.0580793,123.513475 72.0475635,123.770724 C72.2092385,125.158025 72.2923588,126.569306 72.2923588,128 C72.2923588,147.962984 56.109163,164.146179 36.1461794,164.146179 C16.1831958,164.146179 0,147.962984 0,128 C0,108.037016 16.1831958,91.8538206 36.1461794,91.8538206 C44.5675756,91.8538206 52.3163286,94.7337483 58.4612942,99.5624594 Z M36.1461794,72.2923588 C16.1831958,72.2923588 0,56.109163 0,36.1461794 C0,16.1831958 16.1831958,0 36.1461794,0 C56.109163,0 72.2923588,16.1831958 72.2923588,36.1461794 C72.2923588,56.109163 56.109163,72.2923588 36.1461794,72.2923588 Z" id="Logo"></path>
            </g>
        </g>
    </g>
</svg>