<?xml version="1.0" encoding="UTF-8"?>
<svg width="236px" height="256px" viewBox="0 0 236 256" version="1.1" xmlns="http://www.w3.org/2000/svg" xmlns:xlink="http://www.w3.org/1999/xlink">
    <!-- Generator: Sketch 47.1 (45422) - http://www.bohemiancoding.com/sketch -->
    <title>KuCoin Shares</title>
    <desc>Created with Sketch.</desc>
    <defs></defs>
    <g id="Classic" stroke="none" stroke-width="1" fill="none" fill-rule="evenodd">
        <g transform="translate(-2782.000000, -5445.000000)" id="KuCoin-Shares" fill="#3195DA">
            <g transform="translate(2782.000000, 5445.000000)">
                <path d="M162.472363,4.21472038 C163.506202,4.93495107 164.491053,5.75613086 165.413182,6.67825976 L229.257429,70.522507 C237.6807,78.945778 237.6807,92.6025986 229.257429,101.02587 C220.834158,109.449141 207.177337,109.449141 198.754066,101.02587 L149.729922,52.0017255 L73.7316478,128 L149.729922,203.998275 L198.754066,154.97413 C207.177337,146.550859 220.834158,146.550859 229.257429,154.97413 C237.6807,163.397401 237.6807,177.054222 229.257429,185.477493 L165.413182,249.32174 C164.491053,250.243869 163.506202,251.065049 162.472363,251.78528 C154.029485,258.035138 142.05915,257.334227 134.407469,249.682547 L43.1382691,158.413346 L43.1382691,212.454835 L43.1382691,212.454835 C43.1382691,224.367139 33.4814386,234.02397 21.5691345,234.02397 C9.65683046,234.02397 -2.71965418e-14,224.367139 -6.03961325e-14,212.454835 L0,42.9114055 C-1.45883651e-15,30.9991015 9.65683046,21.342271 21.5691345,21.342271 L21.5691345,21.342271 L21.5691345,21.342271 C33.4814386,21.342271 43.1382691,30.9991015 43.1382691,42.9114055 L43.1382691,97.5866535 L134.407469,6.31745324 L134.407469,6.31745324 C142.05915,-1.3342274 154.029485,-2.03513836 162.472363,4.21472038 Z M149.980726,149.753863 C138.068422,149.753863 128.411592,140.097032 128.411592,128.184728 C128.411592,116.272424 138.068422,106.615594 149.980726,106.615594 C161.89303,106.615594 171.549861,116.272424 171.549861,128.184728 C171.549861,140.097032 161.89303,149.753863 149.980726,149.753863 Z" id="Logo"></path>
            </g>
        </g>
    </g>
</svg>