<?xml version="1.0" encoding="UTF-8"?>
<svg width="222px" height="256px" viewBox="0 0 222 256" version="1.1" xmlns="http://www.w3.org/2000/svg" xmlns:xlink="http://www.w3.org/1999/xlink">
    <!-- Generator: Sketch 47.1 (45422) - http://www.bohemiancoding.com/sketch -->
    <title>Monaco</title>
    <desc>Created with Sketch.</desc>
    <defs>
        <linearGradient x1="61.4788877%" y1="39.463838%" x2="0%" y2="75.4975872%" id="linearGradient-1">
            <stop stop-color="#EC9D73" offset="0%"></stop>
            <stop stop-color="#BC6075" offset="100%"></stop>
        </linearGradient>
        <linearGradient x1="50%" y1="0%" x2="50%" y2="100%" id="linearGradient-2">
            <stop stop-color="#E49670" offset="0%"></stop>
            <stop stop-color="#893E56" offset="100%"></stop>
        </linearGradient>
    </defs>
    <g id="Classic" stroke="none" stroke-width="1" fill="none" fill-rule="evenodd">
        <g transform="translate(-5223.000000, -5445.000000)" id="Monaco">
            <g transform="translate(5223.000000, 5445.000000)">
                <polygon id="Path" fill="url(#linearGradient-1)" points="110.422808 4.54747351e-13 0 63.9846314 0 192.037189 110.422808 255.998666"></polygon>
                <polygon id="Path" fill="url(#linearGradient-2)" points="110.422808 4.54747351e-13 110.422808 255.998666 221.817794 192.032066 221.817794 63.9846314"></polygon>
                <path d="M56.6220317,99.957308 L66.6240326,55.4797801 L153.965449,55.4797801 L164.50533,100.014989 L56.6220317,99.957308 Z M91.7532596,131.589757 L82.2315596,106.773012 L138.844678,106.773012 L129.514975,131.589757 L132.269841,159.318735 L88.836005,159.404489 L91.7532596,131.589757 Z M119.495147,188.749668 L119.456728,179.891353 L138.96127,161.165353 L138.96127,131.589757 L164.551434,114.941099 L193.759633,136.930134 L154.058989,206.113039 L138.335075,206.113039 L119.495147,188.749668 Z M27.0220512,136.930134 L56.2865997,115.142215 L82.1547196,131.589757 L82.1547196,161.161665 L101.725959,179.92588 L101.716841,188.727948 L82.8590859,206.314052 L66.9212496,206.314052 L27.0220512,136.930134 Z" id="Fill-1" fill="#FFFFFF"></path>
            </g>
        </g>
    </g>
</svg>