<?xml version="1.0" encoding="UTF-8"?>
<svg width="256px" height="256px" viewBox="0 0 256 256" version="1.1" xmlns="http://www.w3.org/2000/svg" xmlns:xlink="http://www.w3.org/1999/xlink">
    <!-- Generator: Sketch 47.1 (45422) - http://www.bohemiancoding.com/sketch -->
    <title>Nxt</title>
    <desc>Created with Sketch.</desc>
    <defs></defs>
    <g id="Classic" stroke="none" stroke-width="1" fill="none" fill-rule="evenodd">
        <g transform="translate(-4617.000000, -5445.000000)" id="Nxt">
            <g transform="translate(4617.000000, 5445.000000)">
                <circle id="Oval-22" fill="#D5E7F0" cx="128" cy="128" r="128"></circle>
                <circle id="Oval-22" fill="#B5D5E4" cx="127.935288" cy="127.935288" r="110.463094"></circle>
                <circle id="Oval-22" fill="#348EB8" cx="127.870576" cy="127.870576" r="93.8321537"></circle>
                <path d="M117.300509,132.500308 L123.614648,132.500308 C126.319484,132.500308 127.75521,134.111027 127.75521,136.511492 C127.75521,138.911957 126.309268,140.522676 123.614648,140.522676 L115.282079,140.522676 C112.929551,140.522676 110.64431,139.207983 100.85176,131.831102 C94.3233939,126.913182 90.3000529,124.039289 88.7817373,123.209425 L82.0536063,123.209425 C79.4449356,123.209425 77.3953488,121.742111 77.3953488,119.13353 C77.3953488,116.524859 79.4449356,115.057634 82.0536063,115.057634 L89.6096331,115.057634 C92.6117277,115.057634 96.7875122,118.508204 103.984268,123.597414 C106.438822,125.33316 110.877569,128.300792 117.300509,132.500308 Z M150.950661,132.500308 L161.147509,132.500308 C163.852345,132.500308 165.288072,134.111027 165.288072,136.511492 C165.288072,138.911957 163.84213,140.522676 161.147509,140.522676 L148.93223,140.522676 C146.579703,140.522676 144.294462,139.207983 134.501912,131.831102 C127.973546,126.913182 123.950205,124.039289 122.431889,123.209425 L115.703758,123.209425 C113.095087,123.209425 111.045501,121.742111 111.045501,119.13353 C111.045501,116.524859 113.095087,115.057634 115.703758,115.057634 L123.259785,115.057634 C126.261879,115.057634 130.437664,118.508204 137.634419,123.597414 C140.088973,125.33316 144.52772,128.300792 150.950661,132.500308 Z M90.5612794,132.293356 C92.9003515,132.293356 94.7381193,134.1156 94.7381193,136.434913 C94.7381193,138.754227 92.9003515,140.576471 90.5612794,140.576471 L81.5721887,140.576471 C79.2331167,140.576471 77.3953488,138.754227 77.3953488,136.434913 C77.3953488,134.1156 79.2331167,132.293356 81.5721887,132.293356 L90.5612794,132.293356 Z M174.057294,115.704787 C174.051379,115.704764 174.045461,115.704752 174.03954,115.704752 L149.260763,115.704752 C146.921691,115.704752 145.083923,117.526996 145.083923,119.846309 C145.083923,122.165623 146.921691,123.987867 149.260763,123.987867 L169.933266,123.987867 L169.933266,128.352988 C169.933266,130.69206 171.75551,132.529828 174.074823,132.529828 C176.394136,132.529828 178.21638,130.69206 178.21638,128.352988 L178.21638,119.881592 C178.21638,119.875671 178.216369,119.869753 178.216345,119.863839 C178.216369,119.857999 178.21638,119.852156 178.21638,119.846309 C178.21638,118.689294 177.759029,117.655981 177.010245,116.910887 C176.265151,116.162104 175.231838,115.704752 174.074823,115.704752 C174.068977,115.704752 174.063134,115.704764 174.057294,115.704787 Z" id="Logo" fill="#FFFFFF"></path>
            </g>
        </g>
    </g>
</svg>