<?xml version="1.0" encoding="UTF-8"?>
<svg width="209px" height="256px" viewBox="0 0 209 256" version="1.1" xmlns="http://www.w3.org/2000/svg" xmlns:xlink="http://www.w3.org/1999/xlink">
    <!-- Generator: Sketch 47.1 (45422) - http://www.bohemiancoding.com/sketch -->
    <title>PIVX</title>
    <desc>Created with Sketch.</desc>
    <defs></defs>
    <g id="Classic" stroke="none" stroke-width="1" fill="none" fill-rule="evenodd">
        <g transform="translate(-300.000000, -2488.000000)" id="PIVX">
            <g transform="translate(300.000000, 2488.000000)">
                <path d="M104.427985,10.8240902 L5.27180662,26.697326 L5.27180662,167.624144 C5.27180662,200.211141 75.341669,234.604294 104.427985,246.028643 C121.373948,239.414785 203.58544,203.31346 203.58544,167.624144 L203.58544,26.697326 L104.427985,10.8240902 Z" id="Path" fill="#FFFFFF"></path>
                <path d="M104.416777,242.545882 C127.239088,233.58419 146.969991,223.442231 163.609487,212.120003 C185.611949,197.462686 200.474102,182.136257 200.474102,166.571451 C200.474102,156.194914 200.474102,110.525715 200.474102,29.5638545 L104.417987,14.1018513 L8.36015546,29.5641308 C8.36015546,110.525992 8.36015546,156.195191 8.36015546,166.571728 C8.36015546,182.136534 23.2223077,197.462962 45.2247696,212.12028 C61.8640945,223.442391 81.5947635,233.584258 104.416777,242.545882 Z M104.42802,255.891376 L104.42802,255.901705 C104.424289,255.899983 104.420559,255.898262 104.416829,255.89654 C104.413299,255.89817 104.409768,255.899799 104.406238,255.901428 L104.406238,255.891652 C81.3278261,245.240562 61.6002607,234.399005 45.2235413,223.366981 C21.6714654,207.501345 -2.04718113e-05,187.763942 -2.04718113e-05,166.571728 L-2.04718113e-05,21.8283451 L104.406238,0.00482935303 L104.406238,0 L104.41779,0.00241467651 L104.42802,0.000276369452 L104.42802,0.00455298358 L208.834277,21.8280688 L208.834277,166.571451 C208.834277,187.763666 187.162792,207.501069 163.610716,223.366705 C147.233996,234.398728 127.506431,245.240285 104.42802,255.891376 Z" id="Combined-Shape" fill="#3D3144"></path>
                <path d="M119.996771,136.905535 L86.5291464,136.905535 L86.5291464,189.886582 L73.2904355,189.886582 L73.2904355,124.929525 L118.200471,124.929525 C136.205327,124.929525 147.961367,114.015491 147.961367,95.5780657 C147.961367,77.3530357 136.205327,66.7563144 118.411536,66.7563144 L70.9604363,66.8625631 L70.9604363,54.7828638 L119.888065,54.7828638 C144.142044,54.7828638 161.617294,70.4654996 161.617294,95.5780657 C161.619853,120.690632 144.1445,136.905535 119.996771,136.905535 Z M62.2752704,101.193688 L113.218042,101.193688 L113.218042,90.5970693 L62.2752704,90.5970693 L62.2752704,101.193688 Z M104.42806,24.7954476 L17.051811,38.782915 L17.051811,162.967379 C17.051811,191.682984 78.7972504,221.99017 104.42806,232.057285 C119.360814,226.229165 191.805436,194.416742 191.805436,162.967379 L191.805436,38.782915 L104.42806,24.7954476 Z" id="Fill-4" fill="#5E4778"></path>
                <path d="M45.2247696,212.12028 C23.2223077,197.462962 8.36015546,182.136534 8.36015546,166.571728 C8.36015546,156.195191 8.36015546,110.525992 8.36015546,29.5641308 L104.42802,14.1002364 L104.42802,0.000276369452 L-2.04718113e-05,21.8283451 L-2.04718113e-05,166.571728 C-2.04718113e-05,187.763942 21.6714654,207.501345 45.2235413,223.366981 C61.6054127,234.402475 81.3402388,245.247383 104.42802,255.901705 L104.42802,242.550296 C81.6012434,233.587589 61.8668268,223.44425 45.2247696,212.12028 Z" id="Fill-11" fill="#3D3144"></path>
                <path d="M149.631028,212.120003 C127.628566,197.462686 112.766413,182.136257 112.766413,166.571451 C112.766413,156.194914 112.766413,110.525715 112.766413,29.5638545 L208.834277,14.09996 L208.834277,0 L104.406238,21.8280688 L104.406238,166.571451 C104.406238,187.763666 126.077723,207.501069 149.629799,223.366705 C166.011671,234.402199 185.746497,245.247107 208.834277,255.901428 L208.834277,242.55002 C186.007501,233.587313 166.273085,223.443974 149.631028,212.120003 Z" id="Fill-11" fill="#5E4778" transform="translate(156.620257, 127.950714) scale(-1, 1) translate(-156.620257, -127.950714) "></path>
                <path d="M86.5343464,143.047027 L86.5343464,189.876295 L73.2890844,189.876295 L73.2890844,130.862512 C45.4320672,101.193739 35.3740513,63.5767862 31.9871949,36.4516363 L17.0517802,38.7828638 L17.0517802,162.86374 C17.0517802,191.579345 78.797322,221.990221 104.42803,232.057234 C120.594223,226.692668 174.072854,200.194647 187.251758,177.169749 C148.71252,174.93049 115.303479,165.885998 86.5343464,143.047027 Z" id="Fill-14" fill="#3D3144"></path>
            </g>
        </g>
    </g>
</svg>