<?xml version="1.0" encoding="UTF-8"?>
<svg width="256px" height="91px" viewBox="0 0 256 91" version="1.1" xmlns="http://www.w3.org/2000/svg" xmlns:xlink="http://www.w3.org/1999/xlink">
    <!-- Generator: Sketch 47.1 (45422) - http://www.bohemiancoding.com/sketch -->
    <title>Populous</title>
    <desc>Created with Sketch.</desc>
    <defs></defs>
    <g id="Classic" stroke="none" stroke-width="1" fill="none" fill-rule="evenodd">
        <g transform="translate(-2176.000000, -2571.000000)" id="Populous" fill="#000000">
            <g transform="translate(2176.000000, 2571.000000)">
                <path d="M40.5,55.1097888 C40.5,58.5026209 38.0619918,62.7789234 33.234637,62.7588638 C32.2357035,62.7588638 29.0026167,62.7588638 23.5353765,62.7588638 L23.5353765,90 L10.5,90 L10.5,21.0003522 C23.8572739,20.9998826 31.2435064,20.9998826 32.6586975,21.0003522 C36.3923619,21.001591 40.5,24.2506842 40.5,27.6526639 L40.5,55.1097888 Z M27.3707884,53.4347826 L27.3707884,30.441094 C27.3707884,28.8048072 27.5774231,27.3085554 26.3151954,27.3085554 C25.7380405,27.3085554 24.7884163,27.3085554 23.4632749,27.3085554 L23.4632749,57.0673212 C24.903646,57.0673212 25.324649,57.0673212 25.7287736,57.0673212 C27.6453857,57.0673212 27.3707884,55.1365209 27.3707884,53.4347826 Z M105.5,55.1097888 C105.5,58.5026209 103.061992,62.7789234 98.234637,62.7588638 C97.2357035,62.7588638 94.0026167,62.7588638 88.5353765,62.7588638 L88.5353765,90 L75.5,90 L75.5,21.0003522 C88.8572739,20.9998826 96.2435064,20.9998826 97.6586975,21.0003522 C101.392362,21.001591 105.5,24.2506842 105.5,27.6526639 L105.5,55.1097888 Z M92.3707884,53.4347826 C92.3707884,55.1365209 92.6453857,57.0673212 90.7287736,57.0673212 C90.324649,57.0673212 89.903646,57.0673212 88.4632749,57.0673212 L88.4632749,27.3085554 C89.7884163,27.3085554 90.7380405,27.3085554 91.3151954,27.3085554 C92.5774231,27.3085554 92.3707884,28.8048072 92.3707884,30.441094 L92.3707884,53.4347826 Z M55.5,21 L59,21 L59,21 C66.1797017,21 72,26.8202983 72,34 L72,77 C72,84.1797017 66.1797017,90 59,90 L55.5,90 L55.5,90 C48.3202983,90 42.5,84.1797017 42.5,77 L42.5,34 C42.5,26.8202983 48.3202983,21 55.5,21 L55.5,21 Z M57.25,26.5 L57.25,26.5 L57.25,26.5 C58.2164983,26.5 59,27.2835017 59,28.25 L59,82.75 L59,82.75 C59,83.7164983 58.2164983,84.5 57.25,84.5 L57.25,84.5 L57.25,84.5 C56.2835017,84.5 55.5,83.7164983 55.5,82.75 L55.5,28.25 L55.5,28.25 C55.5,27.2835017 56.2835017,26.5 57.25,26.5 Z M136.5,81.0972458 C136.5,85.0605424 135.643791,87.6635575 134.508124,88.3629093 C133.372458,89.0622612 126.533044,90 122.042958,90 C117.552872,90 111.414027,89.3828095 109.671631,88.3629093 C107.929235,87.3430092 107,85.158 107,81.1947034 L107,21 L120.297496,21 L119.797927,81.8769068 C119.797927,82.5266275 119.59008,83.9235169 121.466636,83.9235169 C123.343192,83.9235169 123.202504,82.5266275 123.202504,81.8769068 L123.702073,21 L136.5,21 L136.5,81.0972458 Z M160.062332,90 L139.5,90 L139.5,21 L152.895384,21 L152.895384,84.1406327 L160.062332,84.1406327 L160.062332,90 Z M175,21 L178.5,21 L178.5,21 C185.679702,21 191.5,26.8202983 191.5,34 L191.5,77 C191.5,84.1797017 185.679702,90 178.5,90 L175,90 C167.820298,90 162,84.1797017 162,77 L162,34 L162,34 C162,26.8202983 167.820298,21 175,21 L175,21 Z M176.75,26.5 L176.75,26.5 L176.75,26.5 C177.716498,26.5 178.5,27.2835017 178.5,28.25 L178.5,82.75 L178.5,82.75 C178.5,83.7164983 177.716498,84.5 176.75,84.5 L176.75,84.5 L176.75,84.5 C175.783502,84.5 175,83.7164983 175,82.75 L175,28.25 L175,28.25 C175,27.2835017 175.783502,26.5 176.75,26.5 Z M223.5,81.0972458 C223.5,85.0605424 222.643791,87.6635575 221.508124,88.3629093 C220.372458,89.0622612 213.533044,90 209.042958,90 C204.552872,90 198.414027,89.3828095 196.671631,88.3629093 C194.929235,87.3430092 194,85.158 194,81.1947034 L194,21 L207.297496,21 L206.797927,81.8769068 C206.797927,82.5266275 206.59008,83.9235169 208.466636,83.9235169 C210.343192,83.9235169 210.202504,82.5266275 210.202504,81.8769068 L210.702073,21 L223.5,21 L223.5,81.0972458 Z M255.876516,81.766933 C255.876516,88.9341089 252.895742,88.9942342 250.160194,89.8794348 C247.538072,90.7279316 241.537134,90.5 241.116914,90.5 C240.696693,90.5 235.541568,90.3036063 232.720416,89.8794348 C230.735999,89.5810699 226.252358,87.9377177 226.252358,83.4867996 L226.252358,60.0259921 L239.351415,60.0259921 L239.351415,82.2187282 C239.351415,82.9335148 239.609553,84.5580181 241.357648,84.5580181 C243.105743,84.5580181 243.00971,82.8932471 243.002049,82.2187282 C242.996942,81.769049 242.996942,77.5723676 243.002049,69.6286841 C243.002049,68.2596157 243.056302,63.4810715 243.002049,62.0259921 C242.912063,59.612546 241.635445,58.2676809 239.734164,57.8366571 C237.832884,57.4056332 231.086884,55.5 229.621646,54.5006812 C228.156409,53.5013624 226.252358,51.574505 226.252358,49.3896487 L226.252358,33.759573 C226.252358,29.4058729 226.380855,25.4836113 228.536388,23.4363632 C230.691922,21.3891152 236.10442,21 241.635445,21 C246.417477,21 252.627251,21.379899 254.442734,23.4363632 C256.258216,25.4928275 255.876516,29.0159951 255.876516,32.5899281 L255.876516,47.362265 L243.27746,47.362265 L243.27746,28.8317475 C243.27746,28.1819415 243.090214,27.6783494 242.715718,27.3209561 C242.341221,26.9635628 241.865906,26.7848689 241.289757,26.7848689 C240.598379,26.7848689 240.079853,26.9473179 239.734164,27.2722209 C239.388475,27.5971239 239.215633,28.1169609 239.215633,28.8317475 L239.215633,48.073799 C239.215633,50.2831394 249.973901,52.6354961 251.557955,53.5680886 C253.142009,54.5006812 255.876516,55.4762427 255.876516,58.9558904 C255.876516,61.2756556 255.876516,68.8793365 255.876516,81.766933 Z" id="Haettenschweiler"></path>
                <circle id="Oval-8" cx="16.5" cy="10" r="10"></circle>
                <rect id="Rectangle-8" x="0" y="21" width="8.5" height="42"></rect>
            </g>
        </g>
    </g>
</svg>