<?xml version="1.0" encoding="UTF-8"?>
<svg width="204px" height="256px" viewBox="0 0 204 256" version="1.1" xmlns="http://www.w3.org/2000/svg" xmlns:xlink="http://www.w3.org/1999/xlink">
    <!-- Generator: Sketch 47.1 (45422) - http://www.bohemiancoding.com/sketch -->
    <title>Stellar Lumens</title>
    <desc>Created with Sketch.</desc>
    <defs></defs>
    <g id="Classic" stroke="none" stroke-width="1" fill="none" fill-rule="evenodd">
        <g transform="translate(-5829.000000, -1122.000000)" id="Stellar-Lumens">
            <g transform="translate(5829.000000, 1122.000000)">
                <path d="M63.1913225,188.951021 C74.563516,197.020701 95.4151818,186.958806 110.197263,166.489656 C110.405768,166.218302 110.629627,165.965066 110.825338,165.680917 C118.956536,154.061834 116.154457,137.997911 104.580309,129.783596 C93.0059567,121.569282 77.0340542,124.331646 68.9145244,135.948273 C68.7149243,136.233548 68.5510474,136.530389 68.3655728,136.820781 C54.2028667,157.732737 51.820562,180.888914 63.1913225,188.951021" id="Fill-1" fill="#ED8117"></path>
                <path d="M74.8244702,173.473011 C82.7393842,178.953008 97.3511395,171.978569 107.760953,157.893962 C107.913366,157.707157 108.069361,157.533147 108.211435,157.337334 C113.85664,149.532763 112.106198,138.629579 104.301627,132.984374 C104.198244,132.909652 104.094042,132.836056 103.989124,132.763483 C95.9283487,127.17734 84.751968,129.133627 79.0288685,137.126538 C78.8829044,137.323682 78.7729708,137.527069 78.645022,137.72411 C68.6611244,152.109447 66.9044382,167.989124 74.8244702,173.473011" id="Fill-3" fill="#EEBB18"></path>
                <path d="M150.681426,196.080267 C150.820941,199.421062 152.792582,198.108205 153.82651,196.493593 C187.673989,143.596992 153.974931,114.455369 146.292781,109.017544 C146.292781,109.017544 90.1104544,126.116522 122.450798,149.034817 C146.396471,166.002059 150.27721,186.554427 150.681426,196.080267 M25.679318,106.967804 C24.4855044,108.503189 23.8969398,110.816504 27.1403912,109.806937 C36.3924216,106.929419 57.3671229,103.570814 81.7132245,120.458727 C114.596071,143.264325 111.925728,84.1545289 111.925728,84.1545289 C104.117063,78.7435221 64.8265391,56.7799299 25.679318,106.967804" id="Fill-5" fill="#5B6A72"></path>
                <path d="M116.524291,158.000201 C122.944763,162.747102 126.827958,163.521244 131.494303,157.757098 C136.160545,151.992953 160.701129,123.210917 185.218682,91.4796091 C209.736235,59.7483016 194.780246,5.14476066 191.837423,2.96963071 L191.799038,3.01579464 L191.824628,2.95816649 C188.881805,0.783036545 134.806847,4.4026575 114.571792,39.2956315 C94.3366346,74.1885032 76.7552384,108.110397 73.1534279,114.656258 C69.5517198,121.20212 71.552737,124.787144 77.9719805,129.530258 C80.8969929,131.686246 89.1329049,137.771492 97.2475215,143.764615 C105.361933,149.757738 113.599381,155.844314 116.524291,158.000201" id="Fill-7" fill="#DCF2F9"></path>
                <path d="M189.199221,6.4831565 C183.903368,6.4831565 172.327889,7.57461112 159.27322,11.5716299 C145.12208,15.9001897 126.097319,24.6262992 115.835926,41.5897539 C99.2754591,68.9362041 84.2759677,95.9680026 77.0673311,108.957367 C75.0880141,112.52458 73.6575463,115.09891 72.857815,116.494781 C71.1356238,119.49646 71.3224291,120.924471 71.6678909,121.832908 C72.2245195,123.27484 73.8994207,124.94841 76.9393823,127.10051 L83.9574263,132.064924 L96.9545699,141.259326 L97.4419013,141.604788 C105.703608,147.452049 113.987014,153.313333 116.961773,155.42326 C123.231266,159.859297 125.090515,159.445971 128.240615,155.723889 C129.276899,154.498242 131.212815,152.269271 133.892064,149.198499 C143.640433,138.006765 163.924108,114.717623 183.977578,89.8520489 C196.426998,74.4188622 198.19781,53.4748686 197.492863,38.6225695 C196.72517,22.5342848 192.895611,9.73694618 191.365343,6.57394898 C190.645452,6.50485662 189.922388,6.47281823 189.199221,6.47803854 M123.759848,165.011745 L123.493612,165.011745 C120.563584,164.932417 117.508166,163.622221 113.278178,160.628218 C110.303419,158.52474 102.018682,152.662125 93.7569753,146.809746 L93.2707698,146.465615 L80.2738309,137.271212 L73.2571176,132.306798 C69.0348066,129.315252 66.7764587,126.870202 65.7196014,124.128207 C64.0652744,119.839465 65.8475503,115.906216 67.3279693,113.320422 C68.1045675,111.966723 69.52613,109.406416 71.4926522,105.863564 C78.7205323,92.8397051 93.7558493,65.7374836 110.37507,38.2873436 C116.355398,28.4084664 125.499952,20.1186111 137.555187,13.6354956 C143.927038,10.2115851 154.57238,5.49795058 169.068982,2.48470468 C174.799758,1.29355234 180.67394,0.486246461 185.608977,0.208546341 C193.173209,-0.216243743 194.515545,0.735695482 195.161636,1.19375226 L195.221721,1.23725486 C195.884598,1.70943719 197.213935,2.78799456 199.316083,9.93009772 C200.72352,14.7167143 201.945482,20.5716523 202.756575,26.4163544 C204.982885,42.4483416 206.14855,72.526448 188.94711,93.8453828 C168.813084,118.810654 148.475568,142.165204 138.701609,153.382426 C136.040273,156.439174 134.117254,158.646342 133.110245,159.837495 C131.644054,161.57115 130.204476,162.825049 128.708806,163.675959 C127.204435,164.546626 125.497905,165.007241 123.759848,165.011745" id="Fill-9" fill="#5B6A72"></path>
                <path d="M136.321771,79.7454023 C146.566684,86.9668337 160.722942,84.5115471 167.925129,74.2653032 C175.127317,64.0191616 172.683495,49.8630065 162.438684,42.641575 C152.193771,35.4200413 138.042631,37.8703124 130.835325,48.1202412 C123.627917,58.3702724 126.080747,72.5226402 136.321771,79.7454023" id="Fill-12" fill="#FEFEFE"></path>
                <path d="M149.416033,41.6908232 C148.285989,41.6908232 147.157992,41.7879619 146.04453,41.9813182 C140.951041,42.8516772 136.417865,45.7251007 133.457027,49.9602066 C127.27321,58.7477316 129.385696,70.9361363 138.166875,77.1288592 C146.956447,83.3269048 159.106262,81.2258828 165.304205,72.4363106 L165.313725,72.4227992 C171.505219,63.6366049 169.390174,51.4508616 160.601319,45.2554773 C157.332175,42.9374541 153.423697,41.6918468 149.416135,41.6908232 M149.335476,87.0947416 C135.027522,87.0528768 123.462484,75.4199747 123.504247,61.1119188 C123.519908,55.8008144 125.167479,50.6227768 128.223921,46.2790679 C136.443148,34.594884 152.578006,31.7860491 164.262088,40.0051743 C164.271402,40.0118276 164.28082,40.0183786 164.290032,40.0249295 C175.962956,48.253267 178.770051,64.4401235 170.54806,76.1065993 C166.611023,81.7345049 160.584327,85.5516788 153.813685,86.7057772 C152.334903,86.9635173 150.836572,87.0936157 149.335476,87.0947416" id="Fill-14" fill="#5B6A72"></path>
                <path d="M20.6048576,247.695927 L41.6287936,217.972597 L44.252768,219.828674 L23.2290367,249.551901 L20.6048576,247.695927 Z M-2.04718113e-05,254.142193 L35.9391655,203.570678 L38.5474789,205.4244 L2.60839536,255.995916 L-2.04718113e-05,254.142193 Z" id="Fill-16" fill="#979797"></path>
            </g>
        </g>
    </g>
</svg>