<?xml version="1.0" encoding="UTF-8"?>
<svg width="256px" height="56px" viewBox="0 0 256 56" version="1.1" xmlns="http://www.w3.org/2000/svg" xmlns:xlink="http://www.w3.org/1999/xlink">
    <!-- Generator: Sketch 47.1 (45422) - http://www.bohemiancoding.com/sketch -->
    <title>Streamr DATAcoin	</title>
    <desc>Created with Sketch.</desc>
    <defs></defs>
    <g id="Classic" stroke="none" stroke-width="1" fill="none" fill-rule="evenodd">
        <g transform="translate(-4617.000000, -6931.000000)" id="Streamr-DATAcoin-" fill="#DB662F">
            <g transform="translate(4617.000000, 6931.000000)">
                <path d="M-4.54747351e-13,52.3869027 C1.5245522,53.3586438 29.5595135,62.4536588 29.5595135,41.7987735 C29.5595135,24.3019939 10.7515904,32.0896852 10.7515904,23.4777672 C10.7515904,16.797279 23.7940965,19.9466433 27.5721478,20.739151 L28.0877018,12.4023229 C13.2486036,10.1502122 0.400727502,8.60323239 0.400727502,23.7468686 C0.400727502,40.7161559 19.2166071,33.7109719 19.2166071,42.1112886 C19.2166071,49.7560946 4.79207388,45.3144564 1.39396244,44.6985149 L-4.54747351e-13,52.3869027 Z M59.3779552,11.2243137 L48.7145773,11.2243137 L48.7145773,0 L38.3529583,1.45309907 L38.3529583,11.2243137 L31.9234885,11.2243137 L31.9234885,20.0954084 L38.3529583,20.0954084 L38.3529583,42.1940955 C38.3529583,52.2896141 41.5449335,54.9650711 51.3536421,54.9650711 C53.8378492,54.9650711 56.7548034,53.7870619 58.4937484,53.2902205 L57.4626404,45.6345602 C52.7830863,46.8256902 48.7145773,48.3689434 48.7145773,40.6207643 L48.7145773,20.0954084 L58.3468472,20.0954084 L59.3779552,11.2243137 Z M63.9936296,53.9713883 L73.8396946,53.9713883 L73.8396946,27.5424306 C76.7426654,24.8106938 80.6398942,22.5830113 85.531381,20.8593831 L84.230951,11.2243137 C79.5721551,12.5599291 75.9427892,14.3968082 73.3428532,16.734951 L73.3428532,11.7398677 L63.9936296,11.7398677 L63.9936296,53.9713883 Z M166.550716,53.9713883 L176.396781,53.9713883 L176.396781,25.472258 C179.800385,22.8191743 183.108854,21.4926325 186.322187,21.4926325 C191.142188,21.4926325 191.419456,23.5812548 191.419456,28.7980897 L191.419456,53.9713883 L201.265521,53.9713883 L201.265521,25.472258 C205.367688,22.600047 208.894545,21.1639416 211.846092,21.1639416 C216.273413,21.1639416 216.288196,23.5812548 216.288196,28.7980897 L216.288196,53.9713883 L226.134261,53.9713883 L226.134261,21.7379908 C226.134261,7.89389821 213.215196,8.86805429 199.940611,15.8507442 C198.352089,8.31079824 181.57211,10.9415204 175.549999,15.8053625 L173.837723,11.7398677 L166.550716,11.7398677 L166.550716,53.9713883 Z M234.462249,54.0232531 L234.462249,11.7917325 L243.811472,11.7917325 L243.811472,16.7868158 C246.411408,14.448673 250.040774,12.6117939 254.69957,11.2761785 L256,20.9112479 C251.108513,22.6348761 247.211284,24.8625586 244.308314,27.5942954 L244.308314,54.0232531 L234.462249,54.0232531 Z M121.040366,36.7396646 L97.8380815,36.7396646 C97.8380815,46.8792585 101.167375,48.139696 118.779815,44.2949438 L120.326477,52.1771526 C114.873683,55.3498702 99.1702414,57.7867509 91.2698112,50.5569544 C86.2110869,45.9276435 87.5293554,39.4737232 87.5293554,32.0961473 C87.5293554,24.7372952 86.6250861,11.4404405 104.935189,11.4404405 C123.245291,11.4404405 121.040366,26.7915004 121.040366,29.1887993 L121.040366,36.7396646 Z M111.426109,28.7971822 C111.426109,26.1549338 111.676117,19.8436623 104.723627,19.8436623 C97.7711374,19.8436623 97.6267171,26.2185099 97.6267171,28.7971822 L111.426109,28.7971822 Z M158.160255,53.9812824 L149.440595,53.9812824 L149.440595,50.6652882 C146.36914,53.9812824 139.769169,54.9921732 134.69439,54.8659484 C129.619611,54.7397237 126.014357,50.3389002 126.014357,43.126115 C126.014357,35.9133299 127.879321,30.9034758 134.69439,30.9034758 C139.237769,30.9034758 143.63265,30.9034758 147.879034,30.9034758 C147.904555,29.938738 147.879034,25.5743903 147.879034,24.7019346 C147.879034,17.8823571 138.108167,19.9308662 128.382561,20.9510456 L127.426891,13.0748722 C131.409804,11.5762507 136.39018,11.2761785 142.619784,11.2761785 C157.348931,11.2761785 158.160255,17.7654022 158.160255,28.7689289 L158.160255,53.9812824 Z M147.910029,38.0849871 L142.004568,38.0849871 C140.594914,38.0849871 135.798752,37.6015186 135.717291,42.3529889 C135.63583,47.1044593 140.187359,46.478269 140.97346,46.4902924 C143.801677,46.5335501 146.731456,45.2016853 147.910029,43.8693852 L147.910029,38.0849871 Z" id="Logo"></path>
            </g>
        </g>
    </g>
</svg>