<?xml version="1.0" encoding="UTF-8"?>
<svg width="256px" height="243px" viewBox="0 0 256 243" version="1.1" xmlns="http://www.w3.org/2000/svg" xmlns:xlink="http://www.w3.org/1999/xlink">
    <!-- Generator: Sketch 47.1 (45422) - http://www.bohemiancoding.com/sketch -->
    <title>Veritaseum</title>
    <desc>Created with Sketch.</desc>
    <defs></defs>
    <g id="Classic" stroke="none" stroke-width="1" fill="none" fill-rule="evenodd">
        <g transform="translate(-300.000000, -3970.000000)" id="Veritaseum" fill="#F49E47">
            <g transform="translate(300.000000, 3970.000000)">
                <path d="M186.731311,77.2184272 C181.246827,86.2178514 180.766354,96.9121683 180.859847,106.54451 C193.790748,106.55299 206.727587,106.55299 219.670468,106.54451 C219.072641,97.3910523 219.139305,86.7077267 214.911201,78.319237 C210.160483,68.9432163 191.829508,68.8528555 186.731311,77.2184272 Z M234.2308,53.0417867 C243.30063,58.8839365 249.984123,71.73563 252.637684,83.4267535 C255.846677,98.0693428 256.015744,113.130841 255.999052,128.050727 C230.953914,128.059207 205.911335,128.06217 180.871317,128.059616 C180.930198,139.087842 180.214608,150.47633 184.004839,161.042224 C185.832727,166.245374 189.245297,171.414092 194.678989,173.314507 C200.458392,175.154843 207.425666,173.953087 211.645886,169.397405 C217.278034,163.177636 218.453105,154.444415 219.683166,146.467375 L253.784696,146.467375 C253.016676,159.713978 250.50781,173.7092 241.624377,184.123163 C232.72036,194.949496 218.355822,199.37879 204.759305,199.916423 C189.991608,200.463047 173.951455,198.503986 162.175145,188.78725 C151.232188,179.868892 146.455103,165.74861 144.559424,152.21572 C142.663643,136.624252 142.562572,120.855105 143.447024,105.188233 C144.643804,89.9158506 147.47401,73.7432235 157.608087,61.6370741 C171.58959,44.9347984 213.106928,39.435267 234.2308,53.0417867 Z M0,0 L42.399835,0.00899120702 L70.6386065,145.878554 L100.190795,0.00388256667 L141.200513,0.0127716009 L96.053726,196.224204 L45.145456,196.224204 L0,0 Z" id="Logo"></path>
                <path d="M72.7856041,229.321101 C72.7856041,227.185637 72.7856041,223.882513 72.7856041,220.498212 C72.7856041,219.693834 73.2553233,219.144998 74.0308075,219.144998 C74.5340485,219.144998 85.1823294,219.144998 105.323969,219.144998 C106.414903,219.144998 106.670909,219.75689 106.670909,220.566274 C106.670909,223.95831 106.670909,226.876586 106.670909,229.321101 C106.670909,233.490385 112.318529,233.421806 112.318529,229.321101 C112.318529,225.220395 112.318529,222.232088 112.318529,219.144998 C112.318529,216.057909 109.73164,213.803696 106.670909,213.803696 C103.610178,213.803696 75.7591651,213.803696 72.7856041,213.803696 C69.8120432,213.803696 67.5285283,216.47294 67.5285283,219.144998 C67.5285283,221.817057 67.5285283,225.761124 67.5285283,229.321101 C67.5285283,232.881078 72.7856041,232.91602 72.7856041,229.321101 Z" id="Path-24"></path>
                <path d="M124.257076,229.517405 C124.257076,227.381942 124.257076,224.078818 124.257076,220.694516 C124.257076,219.890138 124.726795,219.341303 125.502279,219.341303 C126.00552,219.341303 136.653801,219.341303 156.795441,219.341303 C157.886375,219.341303 158.14238,219.953195 158.14238,220.762578 C158.14238,224.154615 158.14238,227.07289 158.14238,229.517405 C158.14238,233.686689 163.790001,233.61811 163.790001,229.517405 C163.790001,225.416699 163.790001,222.428392 163.790001,219.341303 C163.790001,216.254213 161.203111,214 158.14238,214 C155.08165,214 127.230637,214 124.257076,214 C121.283515,214 119,216.669244 119,219.341303 C119,222.013361 119,225.957428 119,229.517405 C119,233.077382 124.257076,233.112324 124.257076,229.517405 Z" id="Path-24"></path>
                <path d="M176.257076,229.517405 C176.257076,227.381942 176.257076,224.078818 176.257076,220.694516 C176.257076,219.890138 176.726795,219.341303 177.502279,219.341303 C178.00552,219.341303 188.653801,219.341303 208.795441,219.341303 C209.886375,219.341303 210.14238,219.953195 210.14238,220.762578 C210.14238,224.154615 210.14238,227.07289 210.14238,229.517405 C210.14238,233.686689 215.790001,233.61811 215.790001,229.517405 C215.790001,225.416699 215.790001,222.428392 215.790001,219.341303 C215.790001,216.254213 213.203111,214 210.14238,214 C207.08165,214 179.230637,214 176.257076,214 C173.283515,214 171,216.669244 171,219.341303 C171,222.013361 171,225.957428 171,229.517405 C171,233.077382 176.257076,233.112324 176.257076,229.517405 Z" id="Path-24"></path>
                <path d="M46.7856041,239.321101 C46.7856041,237.185637 46.7856041,233.882513 46.7856041,230.498212 C46.7856041,229.693834 47.2553233,229.144998 48.0308075,229.144998 C48.5340485,229.144998 59.1823294,229.144998 79.323969,229.144998 C80.4149033,229.144998 80.6709087,229.75689 80.6709087,230.566274 C80.6709087,233.95831 80.6709087,236.876586 80.6709087,239.321101 C80.6709087,243.490385 86.3185293,243.421806 86.3185293,239.321101 C86.3185293,235.220395 86.3185293,232.232088 86.3185293,229.144998 C86.3185293,226.057909 83.7316396,223.803696 80.6709087,223.803696 C77.6101779,223.803696 49.7591651,223.803696 46.7856041,223.803696 C43.8120432,223.803696 41.5285283,226.47294 41.5285283,229.144998 C41.5285283,231.817057 41.5285283,235.761124 41.5285283,239.321101 C41.5285283,242.881078 46.7856041,242.91602 46.7856041,239.321101 Z" id="Path-24" transform="translate(63.923529, 233.113048) rotate(-180.000000) translate(-63.923529, -233.113048) "></path>
                <path d="M98.2570758,239.517405 C98.2570758,237.381942 98.2570758,234.078818 98.2570758,230.694516 C98.2570758,229.890138 98.726795,229.341303 99.5022792,229.341303 C100.00552,229.341303 110.653801,229.341303 130.795441,229.341303 C131.886375,229.341303 132.14238,229.953195 132.14238,230.762578 C132.14238,234.154615 132.14238,237.07289 132.14238,239.517405 C132.14238,243.686689 137.790001,243.61811 137.790001,239.517405 C137.790001,235.416699 137.790001,232.428392 137.790001,229.341303 C137.790001,226.254213 135.203111,224 132.14238,224 C129.08165,224 101.230637,224 98.2570758,224 C95.2835148,224 93,226.669244 93,229.341303 C93,232.013361 93,235.957428 93,239.517405 C93,243.077382 98.2570758,243.112324 98.2570758,239.517405 Z" id="Path-24" transform="translate(115.395000, 233.309352) rotate(-180.000000) translate(-115.395000, -233.309352) "></path>
                <path d="M150.257076,239.517405 C150.257076,237.381942 150.257076,234.078818 150.257076,230.694516 C150.257076,229.890138 150.726795,229.341303 151.502279,229.341303 C152.00552,229.341303 162.653801,229.341303 182.795441,229.341303 C183.886375,229.341303 184.14238,229.953195 184.14238,230.762578 C184.14238,234.154615 184.14238,237.07289 184.14238,239.517405 C184.14238,243.686689 189.790001,243.61811 189.790001,239.517405 C189.790001,235.416699 189.790001,232.428392 189.790001,229.341303 C189.790001,226.254213 187.203111,224 184.14238,224 C181.08165,224 153.230637,224 150.257076,224 C147.283515,224 145,226.669244 145,229.341303 C145,232.013361 145,235.957428 145,239.517405 C145,243.077382 150.257076,243.112324 150.257076,239.517405 Z" id="Path-24" transform="translate(167.395000, 233.309352) rotate(-180.000000) translate(-167.395000, -233.309352) "></path>
                <path d="M201.257076,234.645919 C201.257076,232.766372 201.257076,224.207332 201.257076,220.82303 C201.257076,220.018652 201.726795,219.469817 202.502279,219.469817 C203.00552,219.469817 213.653801,219.469817 233.795441,219.469817 C234.886375,219.469817 235.14238,220.081709 235.14238,220.891093 C235.14238,224.283129 235.14238,227.201404 235.14238,229.645919 C235.14238,233.815203 240.790001,233.746624 240.790001,229.645919 C240.790001,225.545214 240.790001,222.556906 240.790001,219.469817 C240.790001,216.382727 238.203111,214.128514 235.14238,214.128514 C232.08165,214.128514 204.230637,214.128514 201.257076,214.128514 C198.283515,214.128514 196,216.797758 196,219.469817 C196,222.141875 196,231.085942 196,234.645919 C196,239.217135 197.590434,242.618704 202.109816,242.618704 C206.629198,242.618704 212.159506,242.618704 215.836826,242.618704 C219.514146,242.618704 219.425932,237.755962 215.836826,237.755962 C212.24772,237.755962 205.626483,237.755962 203.800218,237.755962 C201.973953,237.755962 201.257076,236.525466 201.257076,234.645919 Z" id="Path-24" transform="translate(218.395000, 228.373609) rotate(-180.000000) translate(-218.395000, -228.373609) "></path>
                <path d="M21.2570758,234.645919 C21.2570758,232.766372 21.2570758,224.207332 21.2570758,220.82303 C21.2570758,220.018652 21.726795,219.469817 22.5022792,219.469817 C23.0055202,219.469817 33.653801,219.469817 53.7954407,219.469817 C54.886375,219.469817 55.1423804,220.081709 55.1423804,220.891093 C55.1423804,224.283129 55.1423804,227.201404 55.1423804,229.645919 C55.1423804,233.815203 60.7900009,233.746624 60.7900009,229.645919 C60.7900009,225.545214 60.7900009,222.556906 60.7900009,219.469817 C60.7900009,216.382727 58.2031112,214.128514 55.1423804,214.128514 C52.0816495,214.128514 24.2306367,214.128514 21.2570758,214.128514 C18.2835148,214.128514 16,216.797758 16,219.469817 C16,222.141875 16,231.085942 16,234.645919 C16,239.217135 17.5904338,242.618704 22.109816,242.618704 C26.6291983,242.618704 32.1595056,242.618704 35.8368259,242.618704 C39.5141463,242.618704 39.4259318,237.755962 35.8368259,237.755962 C32.2477201,237.755962 25.626483,237.755962 23.8002179,237.755962 C21.9739528,237.755962 21.2570758,236.525466 21.2570758,234.645919 Z" id="Path-24"></path>
            </g>
        </g>
    </g>
</svg>